<svg width="32" height="32" viewBox="0 0 32 32" fill="none" xmlns="http://www.w3.org/2000/svg">
<path d="M27 12H29.31C29.83 12 30.09 12.64 29.72 13.01L25.3 18.3C25.08 18.53 24.71 18.53 24.48 18.3L20.06 13.01C19.69 12.64 19.95 12 20.47 12H23V8H9V11H5V6.97C5 5.33 6.34 4 8 4H24C25.66 4 27 5.33 27 6.97V12Z" fill="black"/>
<path d="M9.00005 24H23.0001V21H27.0001V25.11C27.0001 26.7 25.6601 28 24.0001 28H8.00005C6.34005 28 5.00005 26.71 5.00005 25.12V20H2.47005C1.95005 20 1.69005 19.37 2.06005 19L6.48005 13.74C6.70005 13.51 7.07005 13.51 7.30005 13.74L11.7201 19C12.0901 19.37 11.8301 20 11.3101 20H9.00005V24Z" fill="black"/>
</svg>
