<svg width="32" height="32" viewBox="0 0 32 32" fill="none" xmlns="http://www.w3.org/2000/svg">
<path fill-rule="evenodd" clip-rule="evenodd" d="M8 15.0103V25.9975C8.00002 25.9978 8.00024 26.0003 8.00177 26.0047C8.00377 26.0104 8.00715 26.0169 8.01155 26.0227C8.01355 26.0253 8.01524 26.0272 8.01653 26.0285L8.06084 26.0393L15 28.5688V17.686L8 15.0103ZM17 17.686V28.5688L23.9392 26.0393L23.9835 26.0285C23.9848 26.0272 23.9864 26.0253 23.9884 26.0227C23.9928 26.0169 23.9962 26.0104 23.9982 26.0047C23.9998 26.0003 24 25.9978 24 25.9975V15.0103L17 17.686ZM16 15.9271L8.52561 13.0701L8.46162 13.0548C7.20004 12.7545 6 13.715 6 14.9976V25.9976C6 26.8737 6.58414 27.7052 7.47014 27.9527L16 31.062L24.5299 27.9527C25.4159 27.7052 26 26.8737 26 25.9976V14.9976C26 13.715 24.8 12.7545 23.5384 13.0548L23.4744 13.0701L16 15.9271ZM8.01935 26.0309C8.01934 26.0309 8.01981 26.0312 8.01935 26.0309V26.0309Z" fill="black"/>
<path fill-rule="evenodd" clip-rule="evenodd" d="M22.3571 19.6383L19.357 20.785L18.643 18.9168L21.643 17.7701L22.3571 19.6383ZM9.64297 19.6383L10.3571 17.7701L13.3571 18.9168L12.643 20.785L9.64297 19.6383Z" fill="black"/>
<path fill-rule="evenodd" clip-rule="evenodd" d="M22.357 24.3341L19.357 25.4808L18.6429 23.6126L21.643 22.4659L22.357 24.3341ZM9.64295 24.3341L10.357 22.4659L13.357 23.6126L12.643 25.4808L9.64295 24.3341Z" fill="black"/>
<path d="M17 1C17 3.76142 19.2386 6 22 6V8C19.2386 8 17 10.2386 17 13H15C15 10.2386 12.7614 8 10 8V6C12.7614 6 15 3.76142 15 1L17 1Z" fill="black"/>
<path fill-rule="evenodd" clip-rule="evenodd" d="M15 1C15 3.76142 12.7614 6 10 6V8C12.7614 8 15 10.2386 15 13H17C17 10.2386 19.2386 8 22 8V6C19.2386 6 17 3.76142 17 1L15 1ZM16 4.60759C15.4099 5.58688 14.5869 6.40992 13.6076 7C14.5869 7.59008 15.4099 8.41313 16 9.39242C16.5901 8.41313 17.4131 7.59008 18.3924 7C17.4131 6.40993 16.5901 5.58688 16 4.60759Z" fill="black"/>
</svg>
