<svg width="32" height="32" viewBox="0 0 32 32" fill="none" xmlns="http://www.w3.org/2000/svg">
<path fill-rule="evenodd" clip-rule="evenodd" d="M4 4H10V6H6V22H10V24H4V4Z" fill="black"/>
<path fill-rule="evenodd" clip-rule="evenodd" d="M26 6H22V4H28V14H26V6Z" fill="black"/>
<path d="M10 14H12V16H10V14Z" fill="black"/>
<path d="M15 14H17V16H15V14Z" fill="black"/>
<path d="M23 17C23 19.7614 25.2386 22 28 22V24C25.2386 24 23 26.2386 23 29H21C21 26.2386 18.7614 24 16 24V22C18.7614 22 21 19.7614 21 17H23Z" fill="black"/>
<path fill-rule="evenodd" clip-rule="evenodd" d="M21 17C21 19.7614 18.7614 22 16 22V24C18.7614 24 21 26.2386 21 29H23C23 26.2386 25.2386 24 28 24V22C25.2386 22 23 19.7614 23 17H21ZM22 20.6076C21.4099 21.5869 20.5869 22.4099 19.6076 23C20.5869 23.5901 21.4099 24.4131 22 25.3924C22.5901 24.4131 23.4131 23.5901 24.3924 23C23.4131 22.4099 22.5901 21.5869 22 20.6076Z" fill="black"/>
</svg>
