<svg width="32" height="32" viewBox="0 0 32 32" fill="none" xmlns="http://www.w3.org/2000/svg">
<path d="M17.5543 13.9024C17.5261 14.2134 17.7866 14.4739 18.0976 14.4456L24.2151 13.8895C24.6372 13.8511 24.8231 13.3377 24.5233 13.038L23.1184 11.633C25.5881 10.878 28.5 12.612 28.5 15.6205V16.2967C28.5 20.3598 23.4638 22.2521 20.7882 19.1943L13.4695 10.8301C8.96985 5.6876 0.5 8.87003 0.5 15.7032V16.3794C0.5 22.1402 6.7002 25.1869 11.1591 22.6446L13.038 24.5235C13.3378 24.8232 13.8511 24.6373 13.8895 24.2152L14.4457 18.0977C14.4739 17.7867 14.2134 17.5262 13.9024 17.5545L7.78494 18.1106C7.36276 18.149 7.1769 18.6623 7.47666 18.9621L8.88148 20.3669C6.41176 21.1218 3.5 19.3879 3.5 16.3794V15.7032C3.5 11.6401 8.53625 9.74783 11.2118 12.8056L18.5305 21.1698C23.0301 26.3123 31.5 23.1299 31.5 16.2967V15.6205C31.5 9.85968 25.2997 6.81289 20.8408 9.3554L18.962 7.47661C18.6622 7.17685 18.1489 7.36272 18.1105 7.78489L17.5543 13.9024Z" fill="black"/>
</svg>
