<svg width="32" height="32" viewBox="0 0 32 32" fill="none" xmlns="http://www.w3.org/2000/svg">
<path fill-rule="evenodd" clip-rule="evenodd" d="M29.6161 19.2696L25.7259 18.3389C25.9045 17.5926 26 16.8101 26 16C26 15.1899 25.9045 14.4074 25.7259 13.6611L29.6161 12.7304C29.8671 13.7793 30 14.8741 30 16C30 17.1259 29.8671 18.2207 29.6161 19.2696ZM27.9388 8.68417C26.7837 6.80329 25.1967 5.21626 23.3158 4.06123L21.2227 7.46984C22.5678 8.29586 23.7041 9.43223 24.5302 10.7773L27.9388 8.68417ZM19.2696 2.38387L18.3389 6.27407C17.5926 6.09551 16.8101 6 16 6C15.1899 6 14.4074 6.09551 13.6611 6.27407L12.7304 2.38387C13.7793 2.1329 14.8741 2 16 2C17.1259 2 18.2207 2.1329 19.2696 2.38387ZM8.68417 4.06123L10.7773 7.46984C9.43223 8.29586 8.29586 9.43223 7.46984 10.7773L4.06123 8.68417C5.21626 6.80329 6.80329 5.21626 8.68417 4.06123ZM2.38387 12.7304C2.1329 13.7793 2 14.8741 2 16C2 17.1259 2.1329 18.2207 2.38387 19.2696L6.27407 18.3389C6.09551 17.5926 6 16.8101 6 16C6 15.1899 6.09551 14.4074 6.27407 13.6611L2.38387 12.7304ZM4.06123 23.3158L7.46984 21.2227C8.29586 22.5678 9.43223 23.7041 10.7773 24.5302L8.68417 27.9388C6.80329 26.7837 5.21626 25.1967 4.06123 23.3158ZM12.7304 29.6161L13.6611 25.7259C14.4074 25.9045 15.1899 26 16 26C16.8101 26 17.5926 25.9045 18.3389 25.7259L19.2696 29.6161C18.2207 29.8671 17.1259 30 16 30C14.8741 30 13.7793 29.8671 12.7304 29.6161ZM23.3158 27.9388L21.2227 24.5302C22.5678 23.7041 23.7041 22.5678 24.5302 21.2227L27.9388 23.3158C26.7837 25.1967 25.1967 26.7837 23.3158 27.9388Z" fill="black"/>
</svg>
