<svg width="32" height="32" viewBox="0 0 32 32" fill="none" xmlns="http://www.w3.org/2000/svg">
<path d="M13.6076 18C14.5869 17.4099 15.4099 16.5869 16 15.6076C16.5901 16.5869 17.4131 17.4099 18.3924 18C17.4131 18.5901 16.5901 19.4131 16 20.3924C15.4099 19.4131 14.5869 18.5901 13.6076 18Z" fill="black"/>
<path fill-rule="evenodd" clip-rule="evenodd" d="M24.6154 13.7778H23.5385V11.5556C23.5385 8.48889 21.1262 6 18.1538 6H13.8462C10.8738 6 8.46154 8.48889 8.46154 11.5556V12.6667H7.38462C4.41077 12.6667 2 15.0774 2 18.0513V21C2 23.7614 4.23813 26 6.99955 26H25C27.7614 26 30 23.7614 30 21V19.1624C30 16.1886 27.5892 13.7778 24.6154 13.7778ZM15 24C15 21.2386 12.7614 19 10 19V17C12.7614 17 15 14.7614 15 12H17C17 14.7614 19.2386 17 22 17V19C19.2386 19 17 21.2386 17 24H15Z" fill="black"/>
</svg>
