<svg width="32" height="32" viewBox="0 0 32 32" fill="none" xmlns="http://www.w3.org/2000/svg">
<path d="M23.33 4.16991C22.87 3.79991 22.1 4.05991 22.1 4.57991V6.99991H18.97L8.97 20.9999H2V24.9999H11.03L21.03 10.9999H22.1V13.4199C22.1 13.9399 22.88 14.1999 23.33 13.8299L29.79 9.40991C30.07 9.17991 30.07 8.80991 29.79 8.58991L23.33 4.16991Z" fill="black"/>
<path d="M11.16 14.15L11.29 14.35L13.76 10.89L11.04 7H2V11H8.96L11.16 14.15Z" fill="black"/>
<path d="M22.1 18.58C22.1 18.0599 22.87 17.7999 23.33 18.17L29.79 22.59C30.07 22.8099 30.07 23.18 29.79 23.41L23.33 27.83C22.88 28.2 22.1 27.94 22.1 27.42V25H18.97L16.21 21.1399L18.67 17.7L21.03 21H22.1V18.58Z" fill="black"/>
</svg>
