<svg width="32" height="32" viewBox="0 0 32 32" fill="none" xmlns="http://www.w3.org/2000/svg">
<path d="M18.8274 16C17.6701 16.6974 16.6974 17.6701 16 18.8274C15.3026 17.6701 14.3299 16.6974 13.1726 16C14.3299 15.3026 15.3026 14.3299 16 13.1726C16.6974 14.3299 17.6701 15.3026 18.8274 16Z" fill="black"/>
<path fill-rule="evenodd" clip-rule="evenodd" d="M4 3C3.44772 3 3 3.44772 3 4V28C3 28.5523 3.44772 29 4 29H28C28.5523 29 29 28.5523 29 28V4C29 3.44772 28.5523 3 28 3H4ZM8.90909 14.8182V17.1818C12.1726 17.1818 14.8182 19.8274 14.8182 23.0909H17.1818C17.1818 19.8274 19.8274 17.1818 23.0909 17.1818V14.8182C19.8274 14.8182 17.1818 12.1726 17.1818 8.90909H14.8182C14.8182 12.1726 12.1726 14.8182 8.90909 14.8182Z" fill="black"/>
</svg>
