<svg width="32" height="32" viewBox="0 0 32 32" fill="none" xmlns="http://www.w3.org/2000/svg">
<path d="M29.79 9.51011L23.25 4.21011C22.79 3.77011 22 4.08011 22 4.70011V8.00011H15V12.0001H22V15.3001C22 15.9201 22.79 16.2301 23.25 15.7901L29.79 10.4901C30.08 10.2201 30.08 9.77011 29.79 9.50011V9.51011Z" fill="black"/>
<path d="M7 8H5V12H7V8Z" fill="black"/>
<path d="M9 8H13V12H9V8Z" fill="black"/>
<path d="M19 20H23V24H19V20Z" fill="black"/>
<path d="M25 20H27V24H25V20Z" fill="black"/>
<path d="M8.75005 16.2101C9.21005 15.7701 10.0001 16.0801 10.0001 16.7001V20.0101H17.0001V24.0101H10.0001V27.3101C10.0001 27.9301 9.21005 28.2401 8.75005 27.8001L2.21005 22.5001C1.92005 22.2301 1.92005 21.7801 2.21005 21.5101L8.75005 16.2101Z" fill="black"/>
</svg>
