<svg width="32" height="32" viewBox="0 0 32 32" fill="none" xmlns="http://www.w3.org/2000/svg">
<path d="M19.6602 14.04C18.9302 13.92 17.6602 13.73 16.4102 13.55C15.1502 13.37 13.5802 13.14 13.1202 13.04C12.5602 12.94 11.9902 12.28 11.9902 11.74V9.01C11.9902 8.47 12.4502 8.01 12.9902 8.01H17.9902C18.5302 8.01 18.9902 8.47 18.9902 9.01V11.01H22.9902V9.01C22.9902 6.25 20.7502 4.01 17.9902 4.01H17.8902V2H13.8902V4.01H12.9902C10.2302 4.01 7.99023 6.25 7.99023 9.01V11.74C7.99023 14.23 9.93023 16.53 12.3302 16.96C12.8202 17.07 13.9802 17.24 15.8302 17.5C17.0402 17.67 18.2702 17.85 18.9702 17.97C19.5702 18.07 19.9902 18.69 19.9902 19.18V22.63C19.9902 23.22 19.2602 23.99 18.4802 23.99H13.3502C12.6002 23.99 11.9902 23.38 11.9902 22.63V20.99H7.99023V22.63C7.99023 25.59 10.3902 27.99 13.3502 27.99H13.8902V29.99H17.8902V27.99H18.4802C21.4202 27.99 23.9902 25.49 23.9902 22.63V19.18C23.9902 16.67 22.1202 14.45 19.6502 14.03L19.6602 14.04Z" fill="black"/>
</svg>
