<svg width="32" height="32" viewBox="0 0 32 32" fill="none" xmlns="http://www.w3.org/2000/svg">
<path d="M15.4901 19.79L10.1701 14.18H10.1601C9.72006 13.72 10.0401 12.92 10.6601 12.92L13.9901 13V2.5C13.9901 2.22 14.2101 2 14.4901 2H17.4901C17.7701 2 17.9901 2.22 17.9901 2.5V13L21.3001 12.92C21.9301 12.92 22.2401 13.71 21.8001 14.18L16.4801 19.79C16.2101 20.08 15.7601 20.08 15.4901 19.79Z" fill="black"/>
<path d="M22 7H26C27.65 7 29 8.35 29 10V24C29 25.65 27.65 27 26 27H6C4.35 27 3 25.65 3 24V10C3 8.35 4.35 7 6 7H10V11H7V23H25V11H22V7Z" fill="black"/>
</svg>
