<svg width="32" height="32" viewBox="0 0 32 32" fill="none" xmlns="http://www.w3.org/2000/svg">
<path fill-rule="evenodd" clip-rule="evenodd" d="M25 25V16H27V25H25Z" fill="black"/>
<path d="M26 29.25C26.6904 29.25 27.25 28.6904 27.25 28C27.25 27.3096 26.6904 26.75 26 26.75C25.3096 26.75 24.75 27.3096 24.75 28C24.75 28.6904 25.3096 29.25 26 29.25Z" fill="black"/>
<path fill-rule="evenodd" clip-rule="evenodd" d="M4 5C4 4.44772 4.44772 4 5 4H23C23.5523 4 24 4.44772 24 5V14.2676C23.4022 14.6134 23 15.2597 23 16V24H5C4.44772 24 4 23.5523 4 23V5ZM12 11C12 10.4523 12.4523 10 13 10H15C15.5477 10 16 10.4523 16 11V13H12V11ZM17 15H12V17C12 17.5477 12.4523 18 13 18H17.5V20H13C11.3477 20 10 18.6523 10 17V11C10 9.34772 11.3477 8 13 8H15C16.6523 8 18 9.34772 18 11V14C18 14.5523 17.5523 15 17 15Z" fill="black"/>
</svg>
