<svg width="32" height="32" viewBox="0 0 32 32" fill="none" xmlns="http://www.w3.org/2000/svg">
<path fill-rule="evenodd" clip-rule="evenodd" d="M29.2071 18.2072L19.2071 28.2072L17.7928 26.793L27.7928 16.793L29.2071 18.2072Z" fill="black"/>
<path fill-rule="evenodd" clip-rule="evenodd" d="M19.2071 16.793L29.2071 26.793L27.7928 28.2072L17.7928 18.2072L19.2071 16.793Z" fill="black"/>
<path d="M11 10C10.4523 10 10 10.4523 10 11V13H14V11C14 10.4523 13.5477 10 13 10H11Z" fill="black"/>
<path fill-rule="evenodd" clip-rule="evenodd" d="M2 5C2 4.44772 2.44772 4 3 4H21C21.5523 4 22 4.44772 22 5V16.7575L20.6213 15.3788C19.8403 14.5978 18.574 14.5978 17.7929 15.3788L16.3787 16.793C15.5976 17.5741 15.5976 18.8404 16.3787 19.6215L19.2574 22.5001L17.7575 24H3C2.44772 24 2 23.5523 2 23V5ZM10 15H15C15.5523 15 16 14.5523 16 14V11C16 9.34772 14.6523 8 13 8H11C9.34772 8 8 9.34772 8 11V17C8 18.6523 9.34772 20 11 20H14V18H11C10.4523 18 10 17.5477 10 17V15Z" fill="black"/>
</svg>
