<svg width="32" height="32" viewBox="0 0 32 32" fill="none" xmlns="http://www.w3.org/2000/svg">
<path fill-rule="evenodd" clip-rule="evenodd" d="M19.17 25.0857L27.7929 16.4628L29.2071 17.877L19.17 27.9141L13.7929 22.537L15.2071 21.1228L19.17 25.0857Z" fill="black"/>
<path d="M11 10C10.4523 10 10 10.4523 10 11V13H14V11C14 10.4523 13.5477 10 13 10H11Z" fill="black"/>
<path fill-rule="evenodd" clip-rule="evenodd" d="M2 5C2 4.44772 2.44772 4 3 4H21C21.5523 4 22 4.44772 22 5V19.4272L19.17 22.2572L16.6213 19.7085C15.8403 18.9274 14.574 18.9274 13.7929 19.7085L12.3787 21.1227C11.5976 21.9038 11.5976 23.1701 12.3787 23.9511L12.4276 24H3C2.44772 24 2 23.5523 2 23V5ZM10 15H15C15.5523 15 16 14.5523 16 14V11C16 9.34772 14.6523 8 13 8H11C9.34772 8 8 9.34772 8 11V17C8 18.6523 9.34772 20 11 20H12V18H11C10.4523 18 10 17.5477 10 17V15Z" fill="black"/>
</svg>
