<svg width="32" height="32" viewBox="0 0 32 32" fill="none" xmlns="http://www.w3.org/2000/svg">
<path fill-rule="evenodd" clip-rule="evenodd" d="M18.16 22C18.0716 22 18 22.0716 18 22.16V27.84C18 27.9284 18.0716 28 18.16 28H27.84C27.9284 28 28 27.9284 28 27.84V22.16C28 22.0716 27.9284 22 27.84 22H18.16ZM16 22.16C16 20.9671 16.9671 20 18.16 20H27.84C29.0329 20 30 20.9671 30 22.16V27.84C30 29.0329 29.0329 30 27.84 30H18.16C16.9671 30 16 29.0329 16 27.84V22.16Z" fill="black"/>
<path fill-rule="evenodd" clip-rule="evenodd" d="M21.31 16C20.5851 16 20 16.5895 20 17.31V21H18V17.31C18 15.4905 19.4749 14 21.31 14H24.69C26.5095 14 28 15.4749 28 17.31V21H26V17.31C26 16.5851 25.4105 16 24.69 16H21.31Z" fill="black"/>
<path fill-rule="evenodd" clip-rule="evenodd" d="M26 2H6C5.45 2 5 2.45 5 3V9C5 9.55 5.45 10 6 10H26C26.55 10 27 9.55 27 9V3C27 2.45 26.55 2 26 2ZM11 7H9V5H11V7ZM23 7H14V5H23V7ZM20 12H6C5.45 12 5 12.45 5 13V19C5 19.55 5.45 20 6 20L14 20V19.5C14 18.3954 14.8954 17.5 16 17.5V17H14V15H16.126C16.5701 13.2748 18.1362 12 20 12ZM11 17H9V15H11V17Z" fill="black"/>
</svg>
