<svg width="32" height="32" viewBox="0 0 32 32" fill="none" xmlns="http://www.w3.org/2000/svg">
<path d="M11.13 6.76001C10.55 7.88001 10.26 9.27001 10.12 11.01H8V15.01H10V17.01H8V21.01H10.11C10.25 22.74 10.54 24.13 11.13 25.24C13.1 28.99 17.33 28.99 19.61 28.99H24V24.99H19.61C16.59 24.99 15.29 24.57 14.67 23.38C14.38 22.84 14.23 21.95 14.13 21.01H22V17.01H14V15.01H22V11.01H14.13C14.22 10.06 14.38 9.16001 14.67 8.62001C15.29 7.43001 16.59 7.01001 19.61 7.01001H24V3.01001H19.61C17.33 3.01001 13.1 3.01001 11.13 6.76001Z" fill="black"/>
</svg>
