<svg width="32" height="32" viewBox="0 0 32 32" fill="none" xmlns="http://www.w3.org/2000/svg">
<path fill-rule="evenodd" clip-rule="evenodd" d="M14.584 4C13.8124 5.76591 12.0503 7 10 7V9C12.7614 9 15 11.2386 15 14H17C17 11.2386 19.2386 9 22 9V7C19.9497 7 18.1876 5.76591 17.416 4H27.13C27.93 4 28.4 4.89 27.96 5.55L19 19V27L13 29V19L4.04 5.55C3.59 4.89 4.07 4 4.87 4H14.584ZM13.6076 8C14.5869 7.40992 15.4099 6.58688 16 5.60759C16.5901 6.58688 17.4131 7.40992 18.3924 8C17.4131 8.59008 16.5901 9.41313 16 10.3924C15.4099 9.41313 14.5869 8.59008 13.6076 8Z" fill="black"/>
<path fill-rule="evenodd" clip-rule="evenodd" d="M14.584 4H17.416C17.2773 3.6825 17.1706 3.3478 17.1 3C17.0344 2.67689 17 2.34247 17 2H15C15 2.34247 14.9656 2.67689 14.9 3C14.8294 3.3478 14.7227 3.6825 14.584 4Z" fill="black"/>
</svg>
