<svg width="32" height="32" viewBox="0 0 32 32" fill="none" xmlns="http://www.w3.org/2000/svg">
<path d="M9.83 7L12.78 9.95L14.41 11.59L11.59 14.41L7 9.83V13H3V3H13V7H9.83Z" fill="black"/>
<path d="M7 22.1701L11.59 17.5901L14.41 20.4101L12.78 22.0501L9.83 25.0001H13V29.0001H3V19.0001H7V22.1701Z" fill="black"/>
<path d="M19.0001 3V7H22.1701L19.2201 9.95L17.5901 11.59L20.4101 14.41L25.0001 9.83V13H29.0001V3H19.0001Z" fill="black"/>
<path d="M25.0001 22.1701V19.0001H29.0001V29.0001H19.0001V25.0001H22.1701L19.2201 22.0501L17.5901 20.4101L20.4101 17.5901L25.0001 22.1701Z" fill="black"/>
</svg>
