<svg width="32" height="32" viewBox="0 0 32 32" fill="none" xmlns="http://www.w3.org/2000/svg">
<path d="M16.0699 4.38994L11.6899 8.76994L13.8099 10.8899L18.1899 6.50994C20.2099 4.48994 23.4699 4.48994 25.4899 6.50994C27.5099 8.52994 27.5099 11.7899 25.4899 13.8099L21.1099 18.1899L23.2299 20.3099L27.6099 15.9299C30.7999 12.7399 30.7999 7.57994 27.6099 4.38994C24.4199 1.19994 19.2599 1.19994 16.0699 4.38994Z" fill="black"/>
<path d="M13.8101 25.4899C11.7901 27.5099 8.53006 27.5099 6.51006 25.4899C4.49006 23.4699 4.49006 20.2099 6.51006 18.1899L10.8901 13.8099L8.77006 11.6899L4.39006 16.0699C1.20006 19.2599 1.20006 24.4199 4.39006 27.6099C7.58006 30.7999 12.7401 30.7999 15.9301 27.6099L20.3101 23.2299L18.1901 21.1099L13.8101 25.4899Z" fill="black"/>
<path d="M9.09619 20.78L20.7776 9.09856L22.8989 11.2199L11.2175 22.9013L9.09619 20.78Z" fill="black"/>
</svg>
