<svg width="32" height="32" viewBox="0 0 32 32" fill="none" xmlns="http://www.w3.org/2000/svg">
<path d="M10.2001 2.1C8.71011 2.17 7.69011 2.41 6.80011 2.76C5.88011 3.12 5.10011 3.6 4.32011 4.38C3.54011 5.16 3.07011 5.94 2.71011 6.86C2.37011 7.75 2.13011 8.77 2.07011 10.26C2.00011 11.75 1.99011 12.23 2.00011 16.03C2.00011 19.83 2.02011 20.31 2.10011 21.8C2.17011 23.29 2.41011 24.31 2.76011 25.2C3.12011 26.12 3.60011 26.9 4.38011 27.68C5.16011 28.46 5.94011 28.93 6.86011 29.29C7.75011 29.63 8.77011 29.87 10.2601 29.93C11.7501 30 12.2301 30.01 16.0301 30C19.8301 30 20.3101 29.98 21.8001 29.91C23.2901 29.84 24.3101 29.6 25.2001 29.25C26.1201 28.89 26.9001 28.41 27.6801 27.63C28.4601 26.85 28.9301 26.07 29.2901 25.15C29.6301 24.26 29.8701 23.24 29.9301 21.75C30.0001 20.26 30.0101 19.78 30.0001 15.98C30.0001 12.18 29.9801 11.7 29.9001 10.21C29.8301 8.72 29.5901 7.7 29.2401 6.81C28.8801 5.89 28.4001 5.11 27.6201 4.33C26.8401 3.55 26.0601 3.08 25.1401 2.72C24.2501 2.38 23.2301 2.14 21.7401 2.08C20.2501 2.01 19.7701 2 15.9701 2.01C12.1701 2.01 11.6901 2.03 10.2001 2.11M10.3601 27.42C9.00011 27.36 8.25011 27.13 7.76011 26.94C7.11011 26.69 6.64011 26.38 6.15011 25.9C5.66011 25.41 5.36011 24.95 5.10011 24.29C4.91011 23.8 4.68011 23.06 4.61011 21.69C4.54011 20.21 4.52011 19.77 4.52011 16.03C4.52011 12.29 4.52011 11.85 4.59011 10.37C4.65011 9.01 4.88011 8.26 5.07011 7.77C5.32011 7.11 5.63011 6.65 6.11011 6.16C6.60011 5.67 7.06011 5.37 7.72011 5.11C8.21011 4.92 8.95011 4.69 10.3201 4.62C11.8001 4.55 12.2401 4.54 15.9801 4.53C19.7201 4.53 20.1601 4.53 21.6401 4.6C23.0001 4.66 23.7501 4.89 24.2401 5.08C24.8901 5.33 25.3601 5.63 25.8501 6.12C26.3401 6.61 26.6501 7.07 26.9001 7.73C27.0901 8.22 27.3201 8.96 27.3901 10.33C27.4601 11.81 27.4801 12.25 27.4801 15.99C27.4801 19.73 27.4801 20.17 27.4101 21.65C27.3501 23.01 27.1201 23.76 26.9301 24.25C26.6801 24.9 26.3701 25.37 25.8901 25.86C25.4001 26.35 24.9401 26.65 24.2801 26.91C23.7901 27.1 23.0501 27.33 21.6801 27.4C20.2001 27.47 19.7601 27.49 16.0201 27.49C12.2801 27.49 11.8401 27.49 10.3601 27.42ZM21.7701 8.53C21.7701 9.46 22.5301 10.21 23.4501 10.21C24.3801 10.21 25.1301 9.45 25.1301 8.53C25.1301 7.6 24.3701 6.85 23.4501 6.85C22.5201 6.85 21.7701 7.61 21.7701 8.53ZM8.80011 16.03C8.80011 20 12.0301 23.21 16.0001 23.2C19.9701 23.2 23.1801 19.97 23.1801 16C23.1801 12.03 19.9501 8.82 15.9801 8.83C12.0101 8.83 8.80011 12.06 8.81011 16.03M11.3301 16.03C11.3301 13.45 13.4101 11.36 15.9901 11.36C18.5701 11.36 20.6601 13.44 20.6701 16.02C20.6701 18.6 18.5901 20.69 16.0101 20.7C13.4301 20.7 11.3401 18.62 11.3301 16.04" fill="black"/>
</svg>
