<svg width="32" height="32" viewBox="0 0 32 32" fill="none" xmlns="http://www.w3.org/2000/svg">
<path d="M8.20508 10.9299C8.20674 10.9299 8.2084 10.9299 8.21006 10.9299H8.20006C8.20173 10.9299 8.2034 10.9299 8.20508 10.9299Z" fill="black"/>
<path fill-rule="evenodd" clip-rule="evenodd" d="M3.9 2H28.1C29.1493 2 30 2.85066 30 3.9V28.1C30 29.1493 29.1493 30 28.1 30H3.9C2.85066 30 2 29.1493 2 28.1V3.9C2 2.85066 2.85066 2 3.9 2ZM18.4901 12.8899C17.8101 13.2599 17.2701 13.7799 16.8201 14.4999L16.8101 14.4899C16.8101 14.2965 16.8077 14.1126 16.8054 13.9353C16.801 13.5995 16.797 13.2875 16.8101 12.9799C16.8201 12.7399 16.7301 12.6799 16.5001 12.6799H13.1401C12.8001 12.6799 12.8001 12.6799 12.8001 13.0199V25.6199C12.8001 25.8899 12.8801 25.9599 13.1401 25.9599H16.6301C16.9801 25.9599 16.9801 25.9599 16.9801 25.6199C16.9801 24.9173 16.979 24.2136 16.9778 23.5095L16.9778 23.5084C16.9756 22.0986 16.9734 20.6868 16.9801 19.2799C16.9801 18.8399 17.0101 18.3999 17.0901 17.9699C17.2501 17.0799 17.6601 16.3599 18.6201 16.1199C18.9101 16.0399 19.2201 16.0399 19.5201 16.0399C20.5101 16.0499 21.1201 16.5099 21.3401 17.4699C21.4601 18.0099 21.5101 18.5599 21.5101 19.1099C21.5234 20.5569 21.5189 22.0084 21.5145 23.4584L21.5145 23.4595C21.5123 24.1836 21.5101 24.9073 21.5101 25.6299C21.5101 25.8899 21.5901 25.9699 21.8501 25.9699C23.0101 25.9599 24.1801 25.9599 25.3401 25.9699C25.5901 25.9799 25.6801 25.9099 25.6801 25.6399C25.6764 24.7235 25.6781 23.8071 25.6797 22.8908C25.6826 21.2871 25.6855 19.6835 25.6601 18.0799C25.6501 17.2399 25.5401 16.3999 25.3501 15.5799C25.0101 14.1099 24.1601 13.0399 22.6601 12.6199C22.2252 12.5028 21.7764 12.4557 21.3253 12.4083C21.237 12.399 21.1485 12.3897 21.0601 12.3799C20.1501 12.2699 19.2901 12.4599 18.4901 12.8899ZM6.12006 13.0199C6.12006 12.7799 6.18006 12.6899 6.43006 12.6999C7.62006 12.7099 8.81006 12.7099 10.0001 12.6999C10.2201 12.6999 10.3001 12.7499 10.3001 12.9899V25.6899C10.3001 25.8999 10.2401 25.9799 10.0201 25.9799H6.40006C6.16006 25.9799 6.12006 25.8899 6.12006 25.6699V13.0199ZM5.81006 8.53988C5.82005 9.86822 6.87741 10.9272 8.20508 10.9299C9.54273 10.9272 10.6101 9.86823 10.6101 8.54988C10.6101 7.20988 9.54006 6.12988 8.21006 6.12988C6.87006 6.12988 5.81006 7.18988 5.81006 8.53988Z" fill="black"/>
</svg>
