<svg width="32" height="32" viewBox="0 0 32 32" fill="none" xmlns="http://www.w3.org/2000/svg">
<path d="M5 5H7C7.55228 5 8 5.44772 8 6V8C8 8.55228 7.55228 9 7 9H5C4.44772 9 4 8.55228 4 8V6C4 5.44772 4.44772 5 5 5Z" fill="black"/>
<path d="M13 5H27C27.5523 5 28 5.44772 28 6V8C28 8.55228 27.5523 9 27 9H13C12.4477 9 12 8.55228 12 8V6C12 5.44772 12.4477 5 13 5Z" fill="black"/>
<path d="M27 14H13C12.4477 14 12 14.4477 12 15V17C12 17.5523 12.4477 18 13 18H27C27.5523 18 28 17.5523 28 17V15C28 14.4477 27.5523 14 27 14Z" fill="black"/>
<path d="M5 14H7C7.55228 14 8 14.4477 8 15V17C8 17.5523 7.55228 18 7 18H5C4.44772 18 4 17.5523 4 17V15C4 14.4477 4.44772 14 5 14Z" fill="black"/>
<path d="M27 23H13C12.4477 23 12 23.4477 12 24V26C12 26.5523 12.4477 27 13 27H27C27.5523 27 28 26.5523 28 26V24C28 23.4477 27.5523 23 27 23Z" fill="black"/>
<path d="M5 23H7C7.55228 23 8 23.4477 8 24V26C8 26.5523 7.55228 27 7 27H5C4.44772 27 4 26.5523 4 26V24C4 23.4477 4.44772 23 5 23Z" fill="black"/>
</svg>
