<svg width="32" height="32" viewBox="0 0 32 32" fill="none" xmlns="http://www.w3.org/2000/svg">
<path d="M12.29 3.01001H26.29C27.94 3.01001 29.29 4.36001 29.29 6.01001V26.01C29.29 27.66 27.94 29.01 26.29 29.01H12.29C10.64 29.01 9.29004 27.66 9.29004 26.01V22.01H13.29V25.01H25.29V7.01001H13.29V10.01H9.29004V6.01001C9.29004 4.36001 10.64 3.01001 12.29 3.01001Z" fill="black"/>
<path d="M16.3802 21.83C15.9222 22.2681 15.1272 21.9528 15.1202 21.3381L15.2002 18.01H4.7002C4.4202 18.01 4.2002 17.79 4.2002 17.51V14.51C4.2002 14.23 4.4302 14.01 4.7002 14.01H15.2002L15.1202 10.7C15.1202 10.07 15.9102 9.76001 16.3802 10.2L21.9902 15.52C22.2802 15.79 22.2802 16.24 21.9902 16.51L16.3802 21.83Z" fill="black"/>
<path d="M15.1202 21.3381C15.1202 21.3354 15.1202 21.3327 15.1202 21.33V21.34L15.1202 21.3381Z" fill="black"/>
</svg>
