<svg width="32" height="32" viewBox="0 0 32 32" fill="none" xmlns="http://www.w3.org/2000/svg">
<path d="M6 25H18V22H22V26C22 27.65 20.65 29 19 29H5C3.35 29 2 27.65 2 26V6C2 4.35 3.35 3 5 3H19C20.65 3 22 4.35 22 6V10H18V7H6V25Z" fill="black"/>
<path d="M23.92 10.7C23.92 10.07 24.71 9.76001 25.18 10.2V10.21L30.79 15.53C31.08 15.8 31.08 16.25 30.79 16.52L25.18 21.84C24.72 22.28 23.92 21.96 23.92 21.34L24 18.01H13.5C13.22 18.01 13 17.79 13 17.51V14.51C13 14.23 13.22 14.01 13.5 14.01H24L23.92 10.7Z" fill="black"/>
</svg>
