<svg width="32" height="32" viewBox="0 0 32 32" fill="none" xmlns="http://www.w3.org/2000/svg">
<path d="M13.6076 13C14.5869 12.4099 15.4099 11.5869 16 10.6076C16.5901 11.5869 17.4131 12.4099 18.3924 13C17.4131 13.5901 16.5901 14.4131 16 15.3924C15.4099 14.4131 14.5869 13.5901 13.6076 13Z" fill="black"/>
<path fill-rule="evenodd" clip-rule="evenodd" d="M4.92308 4H27.077C27.5847 4 28.0001 4.41538 28.0001 4.92308L28 21.0769C28 21.5846 27.5846 22 27.0769 22H16.0769L10 26V22H4.92308C4.41538 22 4 21.5846 4 21.0769V4.92308C4 4.41538 4.41539 4 4.92308 4ZM10 12C12.7614 12 15 9.76142 15 7H17C17 9.76142 19.2386 12 22 12V14C19.2386 14 17 16.2386 17 19H15C15 16.2386 12.7614 14 10 14V12Z" fill="black"/>
</svg>
