<svg width="32" height="32" viewBox="0 0 32 32" fill="none" xmlns="http://www.w3.org/2000/svg">
<path d="M16.0001 17.26L16.1001 21.76C16.1001 21.9 16.2201 22.01 16.3501 22L20.8501 21.9C21.0701 21.9 21.1801 21.6199 21.0201 21.4699L16.4201 17.07C16.2601 16.92 15.9901 17.03 16.0001 17.26Z" fill="black"/>
<path fill-rule="evenodd" clip-rule="evenodd" d="M22.8366 16.0104C26.7027 15.9173 29.8965 18.9883 29.9898 22.8459C30.0832 26.7123 27.0121 29.9065 23.1542 29.9998C21.2266 30.0465 19.4526 29.2982 18.1594 28.0633L19.5407 26.6169C20.4675 27.5019 21.7335 28.0336 23.1058 28.0004C25.868 27.9336 28.0569 25.6478 27.9904 22.8942C27.9236 20.1321 25.6378 17.9432 22.8842 18.0098L22.8829 18.0098C20.6911 18.0598 18.8583 19.5091 18.2338 21.4906L16.3263 20.8895C17.2018 18.1113 19.7686 16.0806 22.8366 16.0104Z" fill="black"/>
<path d="M26 3.09524V14.5205C24.9989 14.1657 23.9167 13.9839 22.7896 14.0109C20.9379 14.0536 19.228 14.652 17.8184 15.6449L17.4573 15.3002C16.1735 14.0747 14.0482 15.0043 14.0766 16.779L14.0766 20L6.00004 25.4762V20H3.04696C2.44696 20 1.95605 19.5071 1.95605 18.9048L2.00009 3.09524C2.00009 2.49286 2.491 2 3.09099 2H24.9091C25.5091 2 26 2.49286 26 3.09524Z" fill="black"/>
</svg>
