<svg width="32" height="32" viewBox="0 0 32 32" fill="none" xmlns="http://www.w3.org/2000/svg">
<path fill-rule="evenodd" clip-rule="evenodd" d="M29.7071 19.7072L19.7071 29.7072L18.2928 28.293L28.2928 18.293L29.7071 19.7072Z" fill="black"/>
<path fill-rule="evenodd" clip-rule="evenodd" d="M19.7071 18.293L29.7071 28.293L28.2928 29.7072L18.2928 19.7072L19.7071 18.293Z" fill="black"/>
<path fill-rule="evenodd" clip-rule="evenodd" d="M18.2435 25.514C17.2182 25.8299 16.129 26 15 26C8.92487 26 4 21.0751 4 15C4 8.92487 8.92487 4 15 4C21.0751 4 26 8.92487 26 15C26 16.129 25.8299 17.2182 25.514 18.2435L24 19.7575L21.1213 16.8788C20.3403 16.0978 19.074 16.0978 18.2929 16.8788L16.8787 18.293C16.0976 19.0741 16.0976 20.3404 16.8787 21.1215L19.7574 24.0001L18.2435 25.514ZM12.7598 10.0814L19.814 14.6461C20.062 14.8127 20.062 15.1875 19.814 15.3541L12.7678 19.9187C12.4399 20.1353 12 19.8937 12 19.4939V10.4979C12 10.1064 12.4319 9.86486 12.7598 10.0814Z" fill="black"/>
</svg>
