<svg width="32" height="32" viewBox="0 0 32 32" fill="none" xmlns="http://www.w3.org/2000/svg">
<path fill-rule="evenodd" clip-rule="evenodd" d="M25 25V16H27V25H25Z" fill="black"/>
<path fill-rule="evenodd" clip-rule="evenodd" d="M25.9552 14H25C23.8954 14 23 14.8954 23 16V22.5499C20.9945 24.6742 18.1521 26 15 26C8.92487 26 4 21.0751 4 15C4 8.92487 8.92487 4 15 4C20.738 4 25.4499 8.3935 25.9552 14ZM19.814 14.6461L12.7598 10.0814C12.4319 9.86486 12 10.1064 12 10.4979V19.4939C12 19.8937 12.4399 20.1353 12.7678 19.9187L19.814 15.3541C20.062 15.1875 20.062 14.8127 19.814 14.6461Z" fill="black"/>
<path d="M26 29.25C26.6904 29.25 27.25 28.6904 27.25 28C27.25 27.3096 26.6904 26.75 26 26.75C25.3096 26.75 24.75 27.3096 24.75 28C24.75 28.6904 25.3096 29.25 26 29.25Z" fill="black"/>
</svg>
