<svg width="32" height="32" viewBox="0 0 32 32" fill="none" xmlns="http://www.w3.org/2000/svg">
<path fill-rule="evenodd" clip-rule="evenodd" d="M19.67 25.5858L28.2928 16.9629L29.7071 18.3771L19.67 28.4142L14.2928 23.0371L15.7071 21.6229L19.67 25.5858Z" fill="black"/>
<path fill-rule="evenodd" clip-rule="evenodd" d="M14.4119 25.9845L12.8787 24.4514C12.0976 23.6703 12.0976 22.404 12.8787 21.6229L14.2929 20.2087C15.074 19.4277 16.3403 19.4277 17.1213 20.2087L19.67 22.7574L25.894 16.5335C25.9639 16.0323 26 15.5204 26 15C26 8.92487 21.0751 4 15 4C8.92487 4 4 8.92487 4 15C4 20.8778 8.61017 25.6789 14.4119 25.9845ZM12.7598 10.0814L19.814 14.6461C20.062 14.8127 20.062 15.1875 19.814 15.3541L12.7678 19.9187C12.4399 20.1353 12 19.8937 12 19.4939V10.4979C12 10.1064 12.4319 9.86486 12.7598 10.0814Z" fill="black"/>
</svg>
