<svg width="32" height="32" viewBox="0 0 32 32" fill="none" xmlns="http://www.w3.org/2000/svg">
<path d="M27 5H5C4.44772 5 4 5.44772 4 6V8C4 8.55228 4.44772 9 5 9H27C27.5523 9 28 8.55228 28 8V6C28 5.44772 27.5523 5 27 5Z" fill="black"/>
<path d="M27 14H5C4.44772 14 4 14.4477 4 15V17C4 17.5523 4.44772 18 5 18H27C27.5523 18 28 17.5523 28 17V15C28 14.4477 27.5523 14 27 14Z" fill="black"/>
<path d="M5 23H27C27.5523 23 28 23.4477 28 24V26C28 26.5523 27.5523 27 27 27H5C4.44772 27 4 26.5523 4 26V24C4 23.4477 4.44772 23 5 23Z" fill="black"/>
</svg>
