<svg width="32" height="32" viewBox="0 0 32 32" fill="none" xmlns="http://www.w3.org/2000/svg">
<path d="M5 28H18C19.65 28 21 26.65 21 25V21H17V24H6V8H17V9H21V7C21 5.35 19.65 4 18 4H5C3.35 4 2 5.35 2 7V25C2 26.65 3.35 28 5 28Z" fill="black"/>
<path d="M25.2198 9.15994L30.8298 14.4599L30.8398 14.4499C31.1298 14.7199 31.1298 15.1699 30.8398 15.4399L25.2298 20.7399C24.7598 21.1799 23.9598 20.8699 23.9598 20.2499V16.9999H18.0098C16.8098 16.9999 14.0098 17.2899 14.0098 19.9999H10.0098C10.0098 15.8099 13.2198 12.9999 18.0098 12.9999H23.9598V9.64994C23.9598 9.02994 24.7498 8.71994 25.2198 9.15994Z" fill="black"/>
</svg>
