<svg width="32" height="32" viewBox="0 0 32 32" fill="none" xmlns="http://www.w3.org/2000/svg">
<path d="M28.151 13.459C28.4702 12.5143 28.5766 11.5171 28.479 10.5287C28.3815 9.54026 28.0534 8.58683 27.5481 7.72962C26.7944 6.43504 25.6418 5.41163 24.2587 4.79934C22.8755 4.18704 21.3328 4.02959 19.8521 4.34449C19.1872 3.60098 18.3626 3.00618 17.4405 2.60381C16.5184 2.20145 15.5254 1.99152 14.5147 2.00026C12.9985 2.00026 11.5267 2.46386 10.2943 3.34732C9.07077 4.22203 8.15754 5.46412 7.68763 6.88115C6.70347 7.08233 5.77251 7.4847 4.95682 8.07075C4.14112 8.65681 3.45842 9.40031 2.96191 10.2663C2.19941 11.5608 1.88023 13.0566 2.03982 14.5436C2.19941 16.0306 2.82891 17.4301 3.84853 18.541C3.52935 19.4857 3.42296 20.4829 3.52048 21.4713C3.62688 22.4597 3.94607 23.4132 4.45145 24.2704C5.20508 25.565 6.35768 26.5884 7.74082 27.2007C9.12396 27.813 10.6667 27.9704 12.1474 27.6555C12.8123 28.399 13.6369 28.9938 14.559 29.3962C15.4811 29.7986 16.4741 30.0085 17.4849 29.9997C19.001 29.9997 20.4816 29.5361 21.7052 28.6527C22.9287 27.778 23.842 26.5359 24.3119 25.1101C25.296 24.9089 26.227 24.5066 27.0427 23.9205C27.8584 23.3344 28.5322 22.5909 29.0376 21.725C29.8001 20.4304 30.1193 18.9347 29.9597 17.4476C29.8001 15.9606 29.1706 14.5611 28.151 13.459ZM17.5469 28.1628C16.1372 28.1628 15.0378 27.7342 14.0891 26.947C14.1334 26.9208 14.2043 26.8858 14.2575 26.8508L19.9053 23.6318C20.0472 23.5531 20.1625 23.4394 20.2423 23.2995C20.3221 23.1595 20.3664 23.0021 20.3664 22.8446V14.9897L22.7514 16.3543C22.7514 16.3543 22.778 16.3718 22.7869 16.3805C22.7869 16.3892 22.7957 16.4067 22.8046 16.4155V22.9233C22.8046 25.8711 20.3132 28.1716 17.5469 28.1716V28.1628ZM6.0651 23.3519C5.44446 22.2935 5.21394 21.0427 5.4356 19.8356C5.47993 19.8618 5.55086 19.9056 5.60406 19.9318L11.2519 23.1508C11.3937 23.2295 11.5533 23.2732 11.7129 23.2732C11.8725 23.2732 12.0321 23.2295 12.174 23.1508L19.0719 19.2233V21.9437C19.0719 21.9437 19.0719 21.9699 19.0719 21.9874C19.0719 21.9961 19.0542 22.0136 19.0453 22.0224L13.3354 25.2763C12.1119 25.9673 10.6667 26.1598 9.30129 25.8011C7.93589 25.4425 6.77441 24.559 6.07397 23.3607L6.0651 23.3519ZM4.57557 11.1847C5.19621 10.1176 6.18036 9.30409 7.34184 8.88423V15.5145C7.34184 15.672 7.38617 15.8294 7.46597 15.9694C7.54577 16.1093 7.66103 16.2231 7.80289 16.3018L14.7008 20.2292L12.3158 21.5938C12.3158 21.5938 12.2892 21.6025 12.2804 21.6113C12.2626 21.6113 12.2538 21.6113 12.236 21.6113L6.52615 18.3573C5.3026 17.6576 4.41598 16.5117 4.05247 15.1734C3.68895 13.8263 3.87514 12.4006 4.57557 11.1935V11.1847ZM24.1966 15.6895L17.2987 11.762L19.6837 10.4062C19.6837 10.4062 19.7103 10.3975 19.7192 10.3887H19.7635L25.4734 13.6427C26.3511 14.1412 27.0604 14.876 27.5303 15.7595C28.0002 16.6429 28.1953 17.6401 28.1155 18.6285C28.0268 19.6257 27.6545 20.5704 27.0427 21.3576C26.4309 22.1536 25.6063 22.7571 24.6577 23.0983V16.468C24.6577 16.3105 24.6133 16.1531 24.5335 16.0131C24.4537 15.8732 24.3385 15.7595 24.1966 15.6807V15.6895ZM26.5728 12.1556C26.5728 12.1556 26.4575 12.0857 26.4043 12.0594L20.7565 8.8405C20.6146 8.76177 20.455 8.71804 20.2955 8.71804C20.1359 8.71804 19.9674 8.76177 19.8344 8.8405L12.9365 12.7679V10.0476C12.9365 10.0476 12.9365 10.0214 12.9365 10.0039C12.9365 9.99511 12.9542 9.97762 12.9631 9.96887L18.6729 6.71495C19.5507 6.21637 20.5437 5.97145 21.5545 6.01518C22.5652 6.05892 23.5405 6.38256 24.3651 6.95112C25.1896 7.51968 25.8369 8.31567 26.227 9.23412C26.6171 10.1526 26.7324 11.1672 26.5639 12.1469L26.5728 12.1556ZM11.6331 17.0103L9.2481 15.6457C9.2481 15.6457 9.22149 15.6282 9.21262 15.6195C9.21262 15.6108 9.20377 15.5933 9.1949 15.5845V9.07667C9.1949 8.0795 9.48748 7.10857 10.0283 6.2601C10.5692 5.42038 11.3405 4.74685 12.2626 4.32699C13.1758 3.90713 14.1955 3.74968 15.1974 3.87214C16.1992 4.00335 17.1479 4.40572 17.9193 5.04425C17.875 5.0705 17.804 5.10548 17.7508 5.14047L12.103 8.35941C11.9612 8.43813 11.8459 8.55184 11.7661 8.6918C11.6863 8.83175 11.642 8.9892 11.642 9.14665V17.0015L11.6331 17.0103ZM12.9276 14.255L15.9953 12.5055L19.063 14.255V17.7538L15.9953 19.5032L12.9276 17.7538V14.255Z" fill="black"/>
</svg>
