<svg width="32" height="32" viewBox="0 0 32 32" fill="none" xmlns="http://www.w3.org/2000/svg">
<path d="M17.9998 26V6H15.9998V26H17.9998Z" fill="black"/>
<path d="M19.9998 14H29.9998V12H19.9998V14Z" fill="black"/>
<path d="M19.9998 20H25.9998V18H19.9998V20Z" fill="black"/>
<path d="M29.9998 26H19.9998V24H29.9998V26Z" fill="black"/>
<path d="M25.9998 8H19.9998V6H25.9998V8Z" fill="black"/>
<path d="M12.5477 17.9401H9.0477L9.03769 17.9501V21.2501C9.03769 21.8701 8.2477 22.1801 7.7777 21.7401L2.1677 16.4401C1.8777 16.1701 1.8777 15.7201 2.1677 15.4501L7.7777 10.1501C8.2477 9.71008 9.0477 10.0201 9.0477 10.6401V13.9401H12.5477C12.8277 13.9401 13.0477 14.1601 13.0477 14.4401L13.0477 17.4401C13.0477 17.7201 12.8277 17.9401 12.5477 17.9401Z" fill="black"/>
</svg>
