<svg width="32" height="32" viewBox="0 0 32 32" fill="none" xmlns="http://www.w3.org/2000/svg">
<path d="M9.7498 29.99C8.2398 29.99 6.9098 29.27 5.9098 28.28C4.7898 27.16 4.1898 25.84 4.1898 24.47C4.1898 22.94 4.8998 21.46 6.3098 20.05L18.1798 8.18001C20.2998 6.06001 22.2998 6.55001 23.3598 7.62001C24.0298 8.29001 24.3598 9.16001 24.2698 10.06C24.1798 10.99 23.6898 11.91 22.7998 12.8L11.6898 23.71L10.2898 22.28L21.3898 11.38C21.9298 10.84 22.2398 10.32 22.2798 9.88001C22.3098 9.57001 22.1998 9.29001 21.9498 9.04001C21.2098 8.30001 20.2598 8.94001 19.5898 9.60001L7.7298 21.47C6.70981 22.49 6.1998 23.5 6.1998 24.47C6.1998 25.52 6.8198 26.35 7.3298 26.87C8.4698 28.01 10.3298 28.87 12.7298 26.47L24.5998 14.6C26.1898 13.01 26.9898 11.39 26.9898 9.79001C26.9898 8.40001 26.3598 7.03001 25.1598 5.83001C22.5498 3.22001 19.3498 3.43001 16.3898 6.39001L4.7098 18.08L3.2998 16.67L14.9798 4.98001C19.4598 0.500007 23.9098 1.75001 26.5798 4.42001C28.1598 6.00001 28.9998 7.86001 28.9998 9.80001C28.9998 11.95 27.9998 14.04 26.0198 16.02L14.1498 27.89C12.6298 29.41 11.1198 30 9.7498 30V29.99Z" fill="black"/>
</svg>
