<svg width="32" height="32" viewBox="0 0 32 32" fill="none" xmlns="http://www.w3.org/2000/svg">
<path d="M14 4H18V13H14V4Z" fill="black"/>
<path d="M20.53 8.22001L22.54 4.76001V4.77001C26.51 7.07001 28.98 11.37 28.98 15.98C28.98 23.16 23.18 29 16 29C8.81998 29 2.97998 23.16 2.97998 15.98C2.97998 11.35 5.46998 7.06001 9.46998 4.76001L11.46 8.23001C8.69998 9.82001 6.97998 12.79 6.97998 15.98C6.97998 20.95 11.05 25 16 25C20.95 25 24.98 20.95 24.98 15.98C24.98 12.79 23.28 9.81001 20.53 8.22001Z" fill="black"/>
</svg>
