<svg width="32" height="32" viewBox="0 0 32 32" fill="none" xmlns="http://www.w3.org/2000/svg">
<path d="M29.15 4.88001C29.13 4.24001 28.35 3.90001 27.91 4.34001L25.92 6.33001C23.71 4.06001 20.48 2.01001 16 2.01001C8.28 2.01001 2 8.29001 2 16.01C2 23.73 8.28 30.01 16 30.01V26.01C10.49 26.01 6 21.52 6 16.01C6 10.5 10.49 6.00001 16 6.00001C19.14 6.00001 21.46 7.48001 23.08 9.16001L22.84 9.40001L20.38 11.86C19.94 12.3 20.28 13.09 20.92 13.1L29.35 14.01C29.75 14.02 30.06 13.71 30.05 13.31L29.14 4.88001H29.15Z" fill="black"/>
</svg>
