<svg width="32" height="32" viewBox="0 0 32 32" fill="none" xmlns="http://www.w3.org/2000/svg">
<path d="M27.9099 4.34002C28.3499 3.90002 29.1299 4.24002 29.1499 4.88002H29.1399L30.0499 13.31C30.0599 13.71 29.7499 14.02 29.3499 14.01L20.9199 13.1C20.2799 13.09 19.9399 12.3 20.3799 11.86L23.0799 9.16002C21.4599 7.48002 19.1399 6.00002 15.9999 6.00002C11.1399 6.00002 6.99994 9.54002 6.15994 14.23L2.18994 13.71C3.28994 7.06002 9.13994 2.00002 15.9999 2.01002C20.4799 2.01002 23.7099 4.06002 25.9199 6.33002L27.9099 4.34002Z" fill="black"/>
<path d="M8.94996 22.8699C10.57 24.5299 12.88 25.9999 16 25.9999C20.89 25.9999 25.06 22.4099 25.86 17.6699L29.82 18.1899C28.76 24.8899 22.9 29.9999 16 29.9999C11.54 29.9999 8.31996 27.9699 6.10996 25.7099L4.11996 27.6999C3.67996 28.1399 2.89996 27.7999 2.87996 27.1599L1.96996 18.7299C1.95996 18.3299 2.26996 18.0199 2.66996 18.0299L11.1 18.9399C11.74 18.9499 12.08 19.7399 11.64 20.1799L8.94996 22.8699Z" fill="black"/>
</svg>
