<svg width="29" height="28" viewBox="0 0 29 28" fill="none" xmlns="http://www.w3.org/2000/svg">
<path d="M18.39 9.85C17.95 10.29 18.29 11.08 18.93 11.09L27.36 12C27.76 12.01 28.07 11.7 28.06 11.3L27.15 2.87C27.13 2.23 26.35 1.89 25.91 2.33L23.92 4.32C21.71 2.05 18.48 0 14 0C6.28 0 0 6.28 0 14C0 21.72 6.28 28 14 28C20.87 28 26.75 22.88 27.82 16.19L23.86 15.67C23.06 20.4 18.88 24 14.01 24C8.5 24 4.01 19.51 4.01 14C4.01 8.49 8.5 3.99 14.01 3.99C17.15 3.99 19.47 5.47 21.09 7.15L18.39 9.85Z" fill="black"/>
</svg>
