<svg width="32" height="32" viewBox="0 0 32 32" fill="none" xmlns="http://www.w3.org/2000/svg">
<path d="M27.24 6.86L14.6 14.26L10.65 11.95C11.99 11.01 12.87 9.45 12.87 7.69C12.87 4.83 10.54 2.5 7.68 2.5C4.82 2.5 2.5 4.83 2.5 7.69C2.5 9.65 3.37 11.13 5.18 12.21L11.64 15.99L5.17 19.78C3.38 20.86 2.5 22.33 2.5 24.3C2.5 27.16 4.83 29.49 7.69 29.49C10.55 29.49 12.88 27.16 12.88 24.3C12.88 22.54 12 20.98 10.66 20.04L14.61 17.73L27.25 25.13L28.77 22.54L17.59 15.99L28.77 9.44L27.25 6.85L27.24 6.86ZM7.69 9.88H7.13L6.71 9.63C5.7 9.02 5.5 8.46 5.5 7.69C5.5 6.48 6.48 5.5 7.69 5.5C8.9 5.5 9.88 6.48 9.88 7.69C9.88 8.9 8.9 9.88 7.69 9.88ZM7.69 26.5C6.48 26.5 5.5 25.52 5.5 24.31C5.5 23.54 5.7 22.97 6.7 22.37L7.14 22.11H7.7C8.91 22.11 9.89 23.09 9.89 24.3C9.89 25.51 8.91 26.49 7.7 26.49L7.69 26.5Z" fill="black"/>
</svg>
