<svg width="32" height="32" viewBox="0 0 32 32" fill="none" xmlns="http://www.w3.org/2000/svg">
<path d="M23.5 19.5C23.5 20.3284 22.8284 21 22 21C21.1716 21 20.5 20.3284 20.5 19.5C20.5 18.6716 21.1716 18 22 18C22.8284 18 23.5 18.6716 23.5 19.5Z" fill="black"/>
<path d="M21 20H23V23H21V20Z" fill="black"/>
<path fill-rule="evenodd" clip-rule="evenodd" d="M28 19.4575V15.5616L22 14.0616L16 15.5616V19.4575C16 22.2158 17.421 24.7796 19.76 26.2415L22 27.6415L24.24 26.2415C26.579 24.7796 28 22.2158 28 19.4575ZM22 30L18.7 27.9375C15.7762 26.1101 14 22.9054 14 19.4575V15.5616C14 14.6438 14.6246 13.8439 15.5149 13.6213L22 12L28.4851 13.6213C29.3754 13.8439 30 14.6438 30 15.5616V19.4575C30 22.9054 28.2238 26.1101 25.3 27.9375L22 30Z" fill="black"/>
<path fill-rule="evenodd" clip-rule="evenodd" d="M25 2H3C2.45 2 2 2.45 2 3V11C2 11.55 2.45 12 3 12H14.1784C14.4448 11.8638 14.7298 11.756 15.0299 11.681L20.7873 10.2416C21.5835 10.0426 22.4165 10.0426 23.2127 10.2416L26 10.9384V3C26 2.45 25.55 2 25 2ZM8 8H6V6H8V8ZM22 8H11V6H22V8Z" fill="black"/>
<path fill-rule="evenodd" clip-rule="evenodd" d="M12.0122 20C12.075 21.3912 12.3783 22.7422 12.8929 24H3C2.45 24 2 23.55 2 23V15C2 14.45 2.45 14 3 14H12.3171C12.1121 14.4829 12 15.0117 12 15.5616V18H11V20H12.0122ZM8 20H6V18H8V20Z" fill="black"/>
</svg>
