<svg width="32" height="32" viewBox="0 0 32 32" fill="none" xmlns="http://www.w3.org/2000/svg">
<path d="M23.4398 4.21011L29.7598 9.51011V9.50011C30.0798 9.77011 30.0798 10.2201 29.7598 10.4901L23.4398 15.7901C22.9198 16.2301 22.0098 15.9201 22.0098 15.3001V12.0001H21.0098C18.7998 12.0001 17.0098 13.7901 17.0098 16.0001V17.5001C17.0098 17.7801 16.7898 18.0001 16.5098 18.0001H13.5098C13.2298 18.0001 13.0098 17.7801 13.0098 17.5001V16.0001C13.0098 11.5801 16.5898 8.00011 21.0098 8.00011H22.0198V4.70011C22.0198 4.08011 22.9098 3.77011 23.4398 4.21011Z" fill="black"/>
<path d="M6 29H24C25.66 29 27 27.65 27 26V19.95H23V25H7V9H11.09V5H6C4.35 5 3 6.34 3 8V26C3 27.65 4.34 29 6 29Z" fill="black"/>
</svg>
