<svg width="32" height="32" viewBox="0 0 32 32" fill="none" xmlns="http://www.w3.org/2000/svg">
<path d="M15.0893 16.85H15.0793V16.7066L11.4153 11H20.7532L17.0893 16.7066V20.2192L15.0893 20.7192V16.85Z" fill="black"/>
<path fill-rule="evenodd" clip-rule="evenodd" d="M16 30C21.4545 27.8462 28 24.6154 28 14.9231V3.07692C28 2.48462 27.5091 2 26.9091 2H5.09091C4.49091 2 4 2.48462 4 3.07692V14.9231C4 24.6154 10.5455 27.8462 16 30ZM10.4993 9C9.28507 9 8.61549 10.3324 9.23559 11.3069L13.0793 17.2934V18.85H13.0893V23.2808L19.0893 21.7808V17.2934L22.9307 11.3103L22.9329 11.3069C23.5626 10.3174 22.8558 9 21.6693 9H10.4993Z" fill="black"/>
</svg>
