<svg width="32" height="32" viewBox="0 0 32 32" fill="none" xmlns="http://www.w3.org/2000/svg">
<path fill-rule="evenodd" clip-rule="evenodd" d="M16.1513 4C9.42939 4 4 9.38346 4 16C4 22.6165 9.42939 28 16.1513 28C19.6014 28 22.7123 26.5815 24.9239 24.3034C25.203 24.0159 25.4678 23.7147 25.717 23.401L27.283 24.6452C26.9924 25.0108 26.684 25.3617 26.3589 25.6966C23.7837 28.3492 20.1605 30 16.1513 30C8.34671 30 2 23.7429 2 16C2 8.25713 8.34671 2 16.1513 2C21.6064 2 26.3442 5.05474 28.7058 9.5336L26.9366 10.4664C24.9116 6.6257 20.844 4 16.1513 4Z" fill="black"/>
<path d="M12 14C12 15.1046 11.1046 16 10 16C8.89544 16 8 15.1046 8 14C8 12.8954 8.89544 12 10 12C11.1046 12 12 12.8954 12 14Z" fill="black"/>
<path d="M24 14C24 15.1046 23.1046 16 22 16C20.8954 16 20 15.1046 20 14C20 12.8954 20.8954 12 22 12C23.1046 12 24 12.8954 24 14Z" fill="black"/>
<path fill-rule="evenodd" clip-rule="evenodd" d="M12.4707 23.7952C12.4707 23.7952 12.4709 23.7942 11 23.5C9.52913 23.2058 9.52937 23.2046 9.52937 23.2046L9.52962 23.2034L9.53021 23.2004L9.53169 23.1932L9.53588 23.1733C9.53922 23.1576 9.54368 23.1371 9.54932 23.1122C9.5606 23.0625 9.57666 22.9947 9.59805 22.9116C9.64072 22.7456 9.7051 22.5163 9.79573 22.2444C9.97524 21.7058 10.2666 20.9735 10.7138 20.2282C11.5993 18.7523 13.2545 17 16 17C18.7455 17 20.4007 18.7523 21.2862 20.2282C21.7334 20.9735 22.0248 21.7058 22.2043 22.2444C22.2949 22.5163 22.3593 22.7456 22.402 22.9116C22.4233 22.9947 22.4394 23.0625 22.4507 23.1122C22.4563 23.1371 22.4608 23.1576 22.4641 23.1733L22.4683 23.1932L22.4698 23.2004L22.4704 23.2034L22.4706 23.2046C22.4706 23.2046 22.4709 23.2058 21 23.5C19.5291 23.7942 19.5293 23.7952 19.5293 23.7952L19.5298 23.7977L19.5249 23.7754C19.5196 23.752 19.5103 23.7123 19.4965 23.6587C19.4688 23.5512 19.4238 23.3899 19.3582 23.1931C19.2252 22.7941 19.0166 22.2764 18.7138 21.7717C18.0993 20.7477 17.2545 20 16 20C14.7455 20 13.9007 20.7477 13.2862 21.7717C12.9834 22.2764 12.7748 22.7941 12.6418 23.1931C12.5762 23.3899 12.5312 23.5512 12.5035 23.6587C12.4898 23.7123 12.4804 23.752 12.4751 23.7754L12.4701 23.798L12.4707 23.7952Z" fill="black"/>
<path d="M30 19C30 20.6568 28.6569 22 27 22C25.3431 22 24 20.6568 24 19C24 17.3431 27 13 27 13C27 13 30 17.3431 30 19Z" fill="black"/>
<path fill-rule="evenodd" clip-rule="evenodd" d="M27 20C27.5523 20 28 19.5523 28 19C28 19.0087 27.9988 19.0038 27.9941 18.9843C27.9773 18.9145 27.9152 18.6574 27.7002 18.168C27.5134 17.7429 27.2685 17.2674 27 16.7862C26.7315 17.2674 26.4866 17.7429 26.2998 18.168C26.0848 18.6574 26.0227 18.9145 26.0059 18.9843C26.0012 19.0038 26 19.0087 26 19C26 19.5523 26.4477 20 27 20ZM25.8202 14.8382C26.4496 13.7969 27 13 27 13C27 13 27.5505 13.7969 28.1798 14.8382C29.0197 16.2279 30 18.0528 30 19C30 20.6568 28.6569 22 27 22C25.3431 22 24 20.6568 24 19C24 18.0528 24.9804 16.2279 25.8202 14.8382Z" fill="black"/>
</svg>
