<svg width="32" height="32" viewBox="0 0 32 32" fill="none" xmlns="http://www.w3.org/2000/svg">
<path d="M12 14C12 15.1046 11.1046 16 10 16C8.89543 16 8 15.1046 8 14C8 12.8954 8.89543 12 10 12C11.1046 12 12 12.8954 12 14Z" fill="black"/>
<path d="M24 14C24 15.1046 23.1046 16 22 16C20.8954 16 20 15.1046 20 14C20 12.8954 20.8954 12 22 12C23.1046 12 24 12.8954 24 14Z" fill="black"/>
<path fill-rule="evenodd" clip-rule="evenodd" d="M16 28C22.6274 28 28 22.6274 28 16C28 9.37258 22.6274 4 16 4C9.37258 4 4 9.37258 4 16C4 22.6274 9.37258 28 16 28ZM16 30C23.732 30 30 23.732 30 16C30 8.26801 23.732 2 16 2C8.26801 2 2 8.26801 2 16C2 23.732 8.26801 30 16 30Z" fill="black"/>
<path d="M16 24C20 24 21 19 21 19H11C11 19 12 24 16 24Z" fill="black"/>
<path fill-rule="evenodd" clip-rule="evenodd" d="M19.6336 20C19.5061 20.3099 19.3442 20.6493 19.1425 20.9855C18.4829 22.0849 17.503 23 16 23C14.497 23 13.5171 22.0849 12.8575 20.9855C12.6558 20.6493 12.4939 20.3099 12.3664 20H19.6336ZM11 19C10.0194 19.1961 10.0195 19.1965 10.0196 19.1969L10.0202 19.2L10.0214 19.2057L10.0249 19.2226C10.0278 19.2362 10.0318 19.2545 10.0369 19.2772C10.0472 19.3226 10.0622 19.3857 10.0823 19.4639C10.1225 19.6201 10.1836 19.8381 10.2701 20.0975C10.4418 20.6128 10.7194 21.3093 11.1425 22.0145C11.9829 23.4151 13.503 25 16 25C18.497 25 20.0171 23.4151 20.8575 22.0145C21.2806 21.3093 21.5582 20.6128 21.7299 20.0975C21.8164 19.8381 21.8775 19.6201 21.9177 19.4639C21.9378 19.3857 21.9528 19.3226 21.9631 19.2772C21.9682 19.2545 21.9722 19.2362 21.9751 19.2226L21.9786 19.2057L21.9798 19.2L21.9802 19.1978C21.9803 19.1974 21.9806 19.1961 21 19L21.9806 19.1961L22.2198 18L9.7802 18L10.0196 19.1969L11 19Z" fill="black"/>
</svg>
