<svg width="32" height="32" viewBox="0 0 32 32" fill="none" xmlns="http://www.w3.org/2000/svg">
<path d="M12 14C12 15.1046 11.1046 16 10 16C8.89543 16 8 15.1046 8 14C8 12.8954 8.89543 12 10 12C11.1046 12 12 12.8954 12 14Z" fill="black"/>
<path d="M24 14C24 15.1046 23.1046 16 22 16C20.8954 16 20 15.1046 20 14C20 12.8954 20.8954 12 22 12C23.1046 12 24 12.8954 24 14Z" fill="black"/>
<path fill-rule="evenodd" clip-rule="evenodd" d="M12.4549 23.3651C12.4549 23.3651 12.4552 23.3638 11 23C9.54479 22.6362 9.54513 22.6348 9.54513 22.6348L9.54551 22.6333L9.54633 22.6301L9.54828 22.6225L9.55344 22.6028C9.55746 22.5877 9.56262 22.5687 9.56902 22.5462C9.58179 22.5011 9.59951 22.4414 9.62274 22.3691C9.66909 22.2249 9.73797 22.0289 9.83414 21.7981C10.0248 21.3404 10.3319 20.7242 10.8 20.1C11.7547 18.827 13.4107 17.5 16 17.5C18.5893 17.5 20.2453 18.827 21.2 20.1C21.6681 20.7242 21.9752 21.3404 22.1659 21.7981C22.262 22.0289 22.3309 22.2249 22.3773 22.3691C22.4005 22.4414 22.4182 22.5011 22.431 22.5462C22.4374 22.5687 22.4425 22.5877 22.4466 22.6028L22.4517 22.6225L22.4537 22.6301L22.4545 22.6333L22.4549 22.6348C22.4549 22.6348 22.4552 22.6362 21 23C19.5448 23.3638 19.5451 23.3651 19.5451 23.3651L19.5454 23.3663L19.546 23.3685L19.5468 23.3717L19.5475 23.3743L19.5446 23.364C19.5408 23.3505 19.5331 23.3243 19.5212 23.2871C19.4972 23.2126 19.4567 23.0961 19.3966 22.9519C19.2748 22.6596 19.0819 22.2758 18.8 21.9C18.2547 21.173 17.4107 20.5 16 20.5C14.5893 20.5 13.7453 21.173 13.2 21.9C12.9181 22.2758 12.7252 22.6596 12.6034 22.9519C12.5433 23.0961 12.5028 23.2126 12.4788 23.2871C12.4669 23.3243 12.4592 23.3505 12.4554 23.364L12.4525 23.3743L12.4532 23.3717L12.454 23.3685L12.4546 23.3663L12.4549 23.3651Z" fill="black"/>
<path fill-rule="evenodd" clip-rule="evenodd" d="M16 28C22.6274 28 28 22.6274 28 16C28 9.37258 22.6274 4 16 4C9.37258 4 4 9.37258 4 16C4 22.6274 9.37258 28 16 28ZM16 30C23.732 30 30 23.732 30 16C30 8.26801 23.732 2 16 2C8.26801 2 2 8.26801 2 16C2 23.732 8.26801 30 16 30Z" fill="black"/>
</svg>
