<svg width="32" height="32" viewBox="0 0 32 32" fill="none" xmlns="http://www.w3.org/2000/svg">
<path d="M12 14C12 15.1046 11.1046 16 10 16C8.89543 16 8 15.1046 8 14C8 12.8954 8.89543 12 10 12C11.1046 12 12 12.8954 12 14Z" fill="black"/>
<path d="M24 14C24 15.1046 23.1046 16 22 16C20.8954 16 20 15.1046 20 14C20 12.8954 20.8954 12 22 12C23.1046 12 24 12.8954 24 14Z" fill="black"/>
<path d="M11 19.5V22.5H21V19.5H11Z" fill="black"/>
<path fill-rule="evenodd" clip-rule="evenodd" d="M16 30C23.732 30 30 23.732 30 16C30 8.26801 23.732 2 16 2C8.26801 2 2 8.26801 2 16C2 23.732 8.26801 30 16 30ZM16 28C22.6274 28 28 22.6274 28 16C28 9.37258 22.6274 4 16 4C9.37258 4 4 9.37258 4 16C4 22.6274 9.37258 28 16 28Z" fill="black"/>
</svg>
