<svg width="32" height="32" viewBox="0 0 32 32" fill="none" xmlns="http://www.w3.org/2000/svg">
<path d="M12 14C12 15.1046 11.1046 16 10 16C8.89543 16 8 15.1046 8 14C8 12.8954 8.89543 12 10 12C11.1046 12 12 12.8954 12 14Z" fill="black"/>
<path d="M24 14C24 15.1046 23.1046 16 22 16C20.8954 16 20 15.1046 20 14C20 12.8954 20.8954 12 22 12C23.1046 12 24 12.8954 24 14Z" fill="black"/>
<path fill-rule="evenodd" clip-rule="evenodd" d="M19.659 18.828C19.6587 18.8286 19.6584 18.8292 21 19.5C22.3416 20.1708 22.3413 20.1714 22.341 20.1721L22.3403 20.1734L22.3389 20.1763L22.3356 20.1829L22.3271 20.1994C22.3206 20.2119 22.3125 20.2272 22.3028 20.2453C22.2833 20.2814 22.2572 20.3284 22.2244 20.3847C22.1588 20.4972 22.0654 20.648 21.943 20.8243C21.6995 21.175 21.3328 21.638 20.8299 22.1022C19.8163 23.0378 18.2191 24 16 24C13.7809 24 12.1837 23.0378 11.1701 22.1022C10.6672 21.638 10.3005 21.175 10.057 20.8243C9.93457 20.648 9.84124 20.4972 9.77562 20.3847C9.74276 20.3284 9.71668 20.2814 9.69723 20.2453C9.6875 20.2272 9.67941 20.2119 9.67294 20.1994L9.66445 20.1829L9.6611 20.1763L9.65966 20.1734L9.65899 20.1721C9.65867 20.1714 9.65836 20.1708 11 19.5C12.3416 18.8292 12.3413 18.8286 12.341 18.828L12.3405 18.8269L12.3394 18.8248L12.3378 18.8215L12.3362 18.8184C12.3366 18.8192 12.3368 18.8198 12.3378 18.8215C12.342 18.8293 12.352 18.8474 12.367 18.8731C12.397 18.9247 12.4482 19.0082 12.5211 19.1132C12.6682 19.325 12.8953 19.612 13.2049 19.8978C13.8163 20.4622 14.7191 21 16 21C17.2809 21 18.1837 20.4622 18.7951 19.8978C19.1047 19.612 19.3318 19.325 19.4789 19.1132C19.5518 19.0082 19.603 18.9247 19.633 18.8731C19.648 18.8474 19.6576 18.83 19.6618 18.8221C19.6632 18.8197 19.6639 18.8182 19.6642 18.8176C19.6644 18.8173 19.6644 18.8172 19.6642 18.8176L19.6618 18.8221L19.6606 18.8248L19.6595 18.8269L19.659 18.828Z" fill="black"/>
<path fill-rule="evenodd" clip-rule="evenodd" d="M16 28C22.6274 28 28 22.6274 28 16C28 9.37258 22.6274 4 16 4C9.37258 4 4 9.37258 4 16C4 22.6274 9.37258 28 16 28ZM16 30C23.732 30 30 23.732 30 16C30 8.26801 23.732 2 16 2C8.26801 2 2 8.26801 2 16C2 23.732 8.26801 30 16 30Z" fill="black"/>
</svg>
