<svg width="32" height="32" viewBox="0 0 32 32" fill="none" xmlns="http://www.w3.org/2000/svg">
<path d="M16.0001 24C20.0001 24 21.0001 19 21.0001 19H11.0001C11.0001 19 12.0001 24 16.0001 24Z" fill="black"/>
<path fill-rule="evenodd" clip-rule="evenodd" d="M19.6337 20C19.5062 20.3099 19.3443 20.6493 19.1426 20.9855C18.483 22.0849 17.5031 23 16.0001 23C14.4971 23 13.5172 22.0849 12.8576 20.9855C12.6559 20.6493 12.4939 20.3099 12.3664 20H19.6337ZM11.0001 19C10.0195 19.1961 10.0196 19.1965 10.0197 19.1969L10.0203 19.2L10.0215 19.2057L10.025 19.2226C10.0279 19.2362 10.0319 19.2545 10.037 19.2772C10.0473 19.3226 10.0623 19.3857 10.0824 19.4639C10.1225 19.6201 10.1837 19.8381 10.2701 20.0975C10.4419 20.6128 10.7195 21.3093 11.1426 22.0145C11.983 23.4151 13.5031 25 16.0001 25C18.4971 25 20.0172 23.4151 20.8576 22.0145C21.2807 21.3093 21.5583 20.6128 21.73 20.0975C21.8165 19.8381 21.8776 19.6201 21.9178 19.4639C21.9379 19.3857 21.9528 19.3226 21.9631 19.2772C21.9683 19.2545 21.9723 19.2362 21.9752 19.2226L21.9787 19.2057L21.9799 19.2L21.9803 19.1978C21.9804 19.1974 21.9807 19.1961 21.0001 19L21.9807 19.1961L22.2199 18L9.78027 18L10.0197 19.1969L11.0001 19Z" fill="black"/>
<path fill-rule="evenodd" clip-rule="evenodd" d="M24.7079 17.9408C24.1208 16.8752 23.7059 16 23.7059 16C23.7059 16 24.6712 15.9217 25.8877 15.8974C27.5111 15.8649 29.5818 15.9284 30.402 16.4019C31.8369 17.2304 32.3285 19.0651 31.5001 20.5C30.6717 21.9349 28.8369 22.4265 27.402 21.5981C26.5818 21.1245 25.4915 19.363 24.7079 17.9408Z" fill="black"/>
<path fill-rule="evenodd" clip-rule="evenodd" d="M6.11248 15.8974C4.48906 15.8649 2.41841 15.9284 1.59816 16.4019C0.16328 17.2304 -0.328346 19.0651 0.500081 20.5C1.32851 21.9349 3.16328 22.4265 4.59816 21.5981C5.41841 21.1245 6.50871 19.363 7.29226 17.9408C7.8794 16.8752 8.29431 16 8.29431 16C8.29431 16 7.32895 15.9217 6.11248 15.8974Z" fill="black"/>
<path fill-rule="evenodd" clip-rule="evenodd" d="M25.7082 23.055C23.5265 26.052 19.9908 28 16.0001 28C11.9446 28 8.35894 25.9882 6.18674 22.9081C5.99982 23.0678 5.80317 23.2118 5.59816 23.3301C5.21067 23.5538 4.80569 23.7198 4.39317 23.8307C6.90935 27.5529 11.1689 30 16.0001 30C20.7783 30 24.9975 27.6062 27.5237 23.9524C27.0853 23.8419 26.6547 23.6696 26.2438 23.4323C26.0581 23.3251 25.8792 23.1969 25.7082 23.055ZM29.8952 14.2776C29.0463 7.35819 23.1489 2 16.0001 2C8.8994 2 3.0334 7.28624 2.12282 14.1379C2.57117 14.048 3.01112 13.9993 3.38225 13.9673C3.64376 13.9447 3.9116 13.928 4.18039 13.916C5.16692 8.28197 10.0834 4 16.0001 4C21.9554 4 26.8976 8.33822 27.8386 14.0268C28.0478 14.0379 28.2557 14.0519 28.4597 14.0695C28.8793 14.1057 29.3869 14.1632 29.8952 14.2776Z" fill="black"/>
<path fill-rule="evenodd" clip-rule="evenodd" d="M12.0001 15H8.00008V13H12.0001V15Z" fill="black"/>
<path fill-rule="evenodd" clip-rule="evenodd" d="M24.0001 15H20.0001V13H24.0001V15Z" fill="black"/>
</svg>
