<svg width="32" height="32" viewBox="0 0 32 32" fill="none" xmlns="http://www.w3.org/2000/svg">
<path fill-rule="evenodd" clip-rule="evenodd" d="M21 29C23.2091 29 25 27.2091 25 25L25 21.8284C25 20.8839 24.666 19.974 24.0633 19.2563C23.8279 18.9758 23.5772 18.7871 23.4208 18.6772L11 9.9602L11 6.99997L21 6.99997L21 11L25 11L25 6.99997C25 4.79083 23.2091 2.99997 21 2.99997L11 2.99997C8.79086 2.99997 7 4.79083 7 6.99997L7 9.9602C7 11.2637 7.63518 12.4855 8.70218 13.2343L21 21.8651L21 25L11 25L11 21L7 21L7 25C7 27.2091 8.79086 29 11 29L21 29Z" fill="black"/>
</svg>
