<svg width="32" height="32" viewBox="0 0 32 32" fill="none" xmlns="http://www.w3.org/2000/svg">
<path fill-rule="evenodd" clip-rule="evenodd" d="M1 11C1 8.79086 2.79086 7 5 7H8.17157C9.23244 7 10.2499 7.42143 11 8.17157L13.4375 10.6091L10.6091 13.4375L8.17157 11H5V21L8.17157 21L11.9192 17.2524L14.7476 20.0808L11 23.8284C10.2499 24.5786 9.23244 25 8.17157 25H5C2.79086 25 1 23.2091 1 21V11Z" fill="black"/>
<path fill-rule="evenodd" clip-rule="evenodd" d="M21 8.17157C21.7501 7.42143 22.7675 7 23.8284 7H27C29.2091 7 31 8.79086 31 11V21C31 23.2091 29.2091 25 27 25H23.8284C22.7675 25 21.7501 24.5786 21 23.8284L10.5706 13.3991L13.399 10.5706L23.8284 21H27V11L23.8284 11L20.2475 14.5809L17.4191 11.7524L21 8.17157Z" fill="black"/>
</svg>
