<svg width="32" height="32" viewBox="0 0 32 32" fill="none" xmlns="http://www.w3.org/2000/svg">
<path d="M10.9999 21.92H14.3099C14.9299 21.92 15.2399 22.71 14.7999 23.18L9.49987 28.79C9.22987 29.08 8.77987 29.08 8.50987 28.79L3.20987 23.18C2.76987 22.71 3.07987 21.91 3.69987 21.91H6.99987V3.41C6.99987 3.13 7.21987 2.91 7.49987 2.91H10.4999C10.7799 2.91 10.9999 3.13 10.9999 3.41V21.92Z" fill="black"/>
<path d="M30 4H20V6H30V4Z" fill="black"/>
<path d="M20 11H28V13H20V11Z" fill="black"/>
<path d="M26 18H20V20H26V18Z" fill="black"/>
<path d="M24 25H20V27H24V25Z" fill="black"/>
</svg>
