<svg width="32" height="32" viewBox="0 0 32 32" fill="none" xmlns="http://www.w3.org/2000/svg">
<path d="M10.9999 21.92H14.3099C14.9299 21.92 15.2399 22.71 14.7999 23.18L9.49987 28.79C9.22987 29.08 8.77987 29.08 8.50987 28.79L3.20987 23.18C2.76987 22.71 3.07987 21.91 3.69987 21.91H6.99987V3.41C6.99987 3.13 7.21987 2.91 7.49987 2.91H10.4999C10.7799 2.91 10.9999 3.13 10.9999 3.41V21.92Z" fill="black"/>
<path d="M21.5 14H28V12H22V11.54L27.33 7.99C27.75 7.71 28 7.24 28 6.74V5.51C28 4.68 27.33 4.01 26.5 4.01H20V6.01H26V6.47L20.67 10.02C20.25 10.3 20 10.77 20 11.27V12.5C20 13.33 20.67 14 21.5 14Z" fill="black"/>
<path fill-rule="evenodd" clip-rule="evenodd" d="M26.61 18.97C26.41 18.39 25.85 18 25.22 18H21.92C21.28 18 20.71 18.4 20.52 19.01L19.21 27.86L21.19 28.15L21.5 26H25.83L26.21 28.17L28.18 27.82L26.65 19.12L26.61 18.96V18.97ZM21.79 24L22.38 20H24.77L25.47 24H21.79Z" fill="black"/>
</svg>
