<svg width="32" height="32" viewBox="0 0 32 32" fill="none" xmlns="http://www.w3.org/2000/svg">
<path d="M10.9999 21.92H14.3099C14.9299 21.92 15.2399 22.71 14.7999 23.18L9.49987 28.79C9.22987 29.08 8.77987 29.08 8.50987 28.79L3.20987 23.18C2.76987 22.71 3.07987 21.91 3.69987 21.91H6.99987V3.41C6.99987 3.13 7.21987 2.91 7.49987 2.91H10.4999C10.7799 2.91 10.9999 3.13 10.9999 3.41V21.92Z" fill="black"/>
<path fill-rule="evenodd" clip-rule="evenodd" d="M26.61 4.97C26.41 4.39 25.85 4 25.22 4H21.92C21.28 4 20.71 4.4 20.52 5.01L19.21 13.86L21.19 14.15L21.5 12H25.83L26.21 14.17L28.18 13.82L26.65 5.12L26.61 4.96V4.97ZM21.79 10L22.38 6H24.77L25.47 10H21.79Z" fill="black"/>
<path d="M26.5 18H20V20H26V20.46L20.67 24.01C20.25 24.29 20 24.76 20 25.26V26.49C20 27.32 20.67 27.99 21.5 27.99H28V25.99H22V25.53L27.33 21.98C27.75 21.7 28 21.23 28 20.73V19.5C28 18.67 27.33 18 26.5 18Z" fill="black"/>
</svg>
