<svg width="32" height="32" viewBox="0 0 32 32" fill="none" xmlns="http://www.w3.org/2000/svg">
<path d="M11.9999 21.92H15.3099C15.9299 21.92 16.2399 22.71 15.7999 23.18L10.4999 28.79C10.2299 29.08 9.77987 29.08 9.50987 28.79L4.20987 23.18C3.76987 22.71 4.07987 21.91 4.69987 21.91H7.99987V3.41C7.99987 3.13 8.21987 2.91 8.49987 2.91H11.4999C11.7799 2.91 11.9999 3.13 11.9999 3.41V21.92Z" fill="black"/>
<path fill-rule="evenodd" clip-rule="evenodd" d="M26.5 4H22.5C21.67 4 21 4.67 21 5.5V9.5C21 10.33 21.67 11 22.5 11H26V14H28V5.5C28 4.67 27.33 4 26.5 4ZM26 9H23V6H26V9Z" fill="black"/>
<path d="M26.5 18H24V20H26V28H28V19.5C28 18.67 27.33 18 26.5 18Z" fill="black"/>
</svg>
