<svg width="32" height="32" viewBox="0 0 32 32" fill="none" xmlns="http://www.w3.org/2000/svg">
<path d="M7.99987 26.5V8.99H4.69987C4.07987 8.99 3.76987 8.2 4.20987 7.73L9.49987 2.12C9.76987 1.83 10.2199 1.83 10.4899 2.12L15.7899 7.73C16.2299 8.2 15.9199 9 15.2999 9H11.9999V26.5C11.9999 26.78 11.7799 27 11.4999 27H8.49987C8.21987 27 7.99987 26.78 7.99987 26.5Z" fill="black"/>
<path d="M23.9999 5.41V22.91L24.0099 22.92H27.3099C27.9299 22.92 28.2399 23.71 27.7999 24.18L22.4999 29.79C22.2299 30.08 21.7799 30.08 21.5099 29.79L16.2099 24.18C15.7699 23.71 16.0799 22.91 16.6999 22.91H19.9999V5.41C19.9999 5.13 20.2199 4.91 20.4999 4.91H23.4999C23.7799 4.91 23.9999 5.13 23.9999 5.41Z" fill="black"/>
</svg>
