<svg width="32" height="32" viewBox="0 0 32 32" fill="none" xmlns="http://www.w3.org/2000/svg">
<path fill-rule="evenodd" clip-rule="evenodd" d="M2.58569 26.5858L5.41412 29.4142L12.4999 22.3284L16.4999 26.3284L29.4141 13.4142L26.5857 10.5858L16.4999 20.6716L12.4999 16.6716L2.58569 26.5858Z" fill="black"/>
<path fill-rule="evenodd" clip-rule="evenodd" d="M25.9999 14V20H29.9999V10L19.9999 10V14L25.9999 14Z" fill="black"/>
<path fill-rule="evenodd" clip-rule="evenodd" d="M6.49993 5.01999C6.22221 5.01999 5.98993 5.25227 5.98993 5.52999V6.58999C5.98993 6.65232 6.02077 6.76533 6.12417 6.88503C6.22841 7.0057 6.34648 7.06297 6.41881 7.07612L6.43509 7.07908L6.45126 7.08258C6.45436 7.08316 6.46666 7.08542 6.49119 7.08933C6.52123 7.0941 6.56071 7.0999 6.61013 7.1067C6.70899 7.1203 6.83605 7.13632 6.98578 7.15434C7.2751 7.18914 7.6337 7.22956 8.00918 7.27189L8.06081 7.27771C8.81461 7.36267 9.66452 7.45848 10.0489 7.52437C11.259 7.73181 12.0799 8.834 12.0799 9.93999V11.49C12.0799 12.1974 11.7421 12.8222 11.2958 13.2531C10.8465 13.687 10.211 14 9.4999 14H6.49993C5.11764 14 3.98993 12.8723 3.98993 11.49V11H5.98993V11.49C5.98993 11.7677 6.22221 12 6.49993 12H9.4999C9.6188 12 9.77331 11.943 9.9065 11.8144C10.0428 11.6828 10.0799 11.5526 10.0799 11.49V9.93999C10.0799 9.74597 9.90083 9.52816 9.71094 9.49561C9.39744 9.44187 8.61973 9.35337 7.82415 9.2637C7.77611 9.25828 7.72769 9.25283 7.67907 9.24736C7.00866 9.17191 6.30085 9.09225 6.04831 9.04151C5.46605 8.9322 4.96387 8.60131 4.61068 8.19245C4.25408 7.77965 3.98993 7.21766 3.98993 6.58999V5.52999C3.98993 4.1477 5.11764 3.01999 6.49993 3.01999L9.3799 3.01999C10.67 3.01999 11.9999 4.05978 11.9999 5.52999V6H9.9999V5.52999C9.9999 5.44279 9.95796 5.32134 9.82864 5.20382C9.69687 5.08408 9.5272 5.01999 9.3799 5.01999L6.49993 5.01999Z" fill="black"/>
<path fill-rule="evenodd" clip-rule="evenodd" d="M8.9999 2V4H6.9999V2H8.9999Z" fill="black"/>
<path fill-rule="evenodd" clip-rule="evenodd" d="M8.99991 13V15H6.99991V13H8.99991Z" fill="black"/>
</svg>
