<svg width="32" height="32" viewBox="0 0 32 32" fill="none" xmlns="http://www.w3.org/2000/svg">
<path fill-rule="evenodd" clip-rule="evenodd" d="M2.58594 5.41424L5.41437 2.58582L12.5001 9.67159L16.5001 5.67159L29.4144 18.5858L26.5859 21.4142L16.5001 11.3284L12.5001 15.3284L2.58594 5.41424Z" fill="black"/>
<path fill-rule="evenodd" clip-rule="evenodd" d="M26.0001 18V12H30.0001V22L20.0001 22V18L26.0001 18Z" fill="black"/>
<path fill-rule="evenodd" clip-rule="evenodd" d="M6.50017 20.02C6.22245 20.02 5.99017 20.2523 5.99017 20.53V21.59C5.99017 21.6523 6.02102 21.7653 6.12441 21.885C6.22865 22.0057 6.34673 22.063 6.41906 22.0761L6.43533 22.0791L6.4515 22.0826C6.45461 22.0832 6.4669 22.0854 6.49144 22.0893C6.52147 22.0941 6.56095 22.0999 6.61038 22.1067C6.70923 22.1203 6.83629 22.1363 6.98602 22.1543C7.27534 22.1891 7.63394 22.2296 8.00943 22.2719L8.06105 22.2777C8.81485 22.3627 9.66476 22.4585 10.0491 22.5244C11.2592 22.7318 12.0801 23.834 12.0801 24.94V26.49C12.0801 27.1974 11.7423 27.8222 11.296 28.2531C10.8467 28.687 10.2113 29 9.50015 29H6.50017C5.11789 29 3.99017 27.8723 3.99017 26.49V26H5.99017V26.49C5.99017 26.7677 6.22245 27 6.50017 27H9.50015C9.61905 27 9.77356 26.943 9.90675 26.8144C10.043 26.6828 10.0801 26.5526 10.0801 26.49V24.94C10.0801 24.746 9.90107 24.5282 9.71118 24.4956C9.39768 24.4419 8.61997 24.3534 7.8244 24.2637C7.77636 24.2583 7.72794 24.2528 7.67932 24.2474C7.0089 24.1719 6.3011 24.0922 6.04855 24.0415C5.46629 23.9322 4.96411 23.6013 4.61093 23.1925C4.25432 22.7796 3.99017 22.2177 3.99017 21.59V20.53C3.99017 19.1477 5.11789 18.02 6.50017 18.02L9.38015 18.02C10.6702 18.02 12.0001 19.0598 12.0001 20.53V21H10.0001V20.53C10.0001 20.4428 9.95821 20.3213 9.82888 20.2038C9.69711 20.0841 9.52744 20.02 9.38015 20.02L6.50017 20.02Z" fill="black"/>
<path fill-rule="evenodd" clip-rule="evenodd" d="M9.00015 17V19H7.00015V17H9.00015Z" fill="black"/>
<path fill-rule="evenodd" clip-rule="evenodd" d="M9.00015 28V30H7.00015V28H9.00015Z" fill="black"/>
</svg>
