<svg width="32" height="32" viewBox="0 0 32 32" fill="none" xmlns="http://www.w3.org/2000/svg">
<path d="M13 7.4389C13 7.3349 13.0202 7.29338 13.0242 7.28531C13.0288 7.27589 13.0417 7.25238 13.0877 7.21702C13.1931 7.13581 13.4741 7.00086 13.9777 7L21.9889 7.04461L22.0111 3.04467L13.9937 3H13.9825C12.8255 3 11.6167 3.30117 10.6472 4.04779C9.62421 4.83553 9 6.02756 9 7.4389V11.46C9 12.813 9.54559 14.0788 10.4688 15H4V17H14.1825L19.3492 19.2665C19.708 19.4239 19.9418 19.7763 19.9473 20.1681L19.9999 23.8697C19.9966 23.963 19.9218 24.2468 19.5866 24.5621C19.2516 24.8773 18.8883 24.9999 18.6667 24.9999H9V28.9999H18.6667C20.1087 28.9999 21.412 28.337 22.3277 27.4753C23.2355 26.6212 24 25.3426 24 23.8634V23.8492L23.9469 20.1113C23.9305 18.9514 23.5138 17.8604 22.8041 17H28V15H19.5804L13.5983 12.3757C13.2348 12.2163 13 11.8569 13 11.46V7.4389Z" fill="black"/>
</svg>
