<svg width="32" height="32" viewBox="0 0 32 32" fill="none" xmlns="http://www.w3.org/2000/svg">
<path d="M6.13024 6.32019C8.90024 3.51019 12.3302 1.98019 16.0602 2.00019H16.0702C23.7902 2.03019 30.0402 8.34019 30.0102 16.0602C29.9802 23.7802 23.6702 30.0302 15.9502 30.0002C9.14024 29.9702 3.36024 25.0902 2.21024 18.3802L2.19024 18.2502L6.14023 17.6302C6.98024 22.5002 11.1002 25.9902 15.9702 26.0102C21.4802 26.0302 25.9902 21.5602 26.0102 16.0502C26.0302 10.5402 21.5602 6.03019 16.0502 6.01019C12.9202 5.99019 10.6002 7.46019 8.95024 9.14019L11.6702 11.8602C12.1102 12.3002 11.7702 13.0802 11.1302 13.1002L2.70024 14.0102C2.30024 14.0202 1.99024 13.7102 2.00024 13.3102L2.91024 4.88019C2.92024 4.24019 3.71024 3.90019 4.15024 4.34019L6.13024 6.32019Z" fill="black"/>
<path d="M15 16.5602L15.03 8.00024H17.03L17 15.4402L21.51 18.1702L20.47 19.8802L15 16.5602Z" fill="black"/>
</svg>
