<svg width="32" height="32" viewBox="0 0 32 32" fill="none" xmlns="http://www.w3.org/2000/svg">
<path d="M16 6H18V26H16V6Z" fill="black"/>
<path d="M20 12H30V14H20V12Z" fill="black"/>
<path d="M20 18H26V20H20V18Z" fill="black"/>
<path d="M30 24H20V26H30V24Z" fill="black"/>
<path d="M26 6H20V8H26V6Z" fill="black"/>
<path d="M2.4502 13.9501H5.9502L5.9602 13.9401V10.6401C5.9602 10.0201 6.7502 9.71005 7.22019 10.1501L12.8302 15.4501C13.1202 15.7201 13.1202 16.1701 12.8302 16.4401L7.22019 21.7401C6.7502 22.1801 5.9502 21.8701 5.9502 21.2501V17.9501H2.4502C2.1702 17.9501 1.9502 17.7301 1.9502 17.4501V14.4501C1.9502 14.1701 2.1702 13.9501 2.4502 13.9501Z" fill="black"/>
</svg>
