<svg width="32" height="32" viewBox="0 0 32 32" fill="none" xmlns="http://www.w3.org/2000/svg">
<path d="M14 6H16V26H14V6Z" fill="black"/>
<path d="M2 12H12V14H2V12Z" fill="black"/>
<path d="M8 18H2V20H8V18Z" fill="black"/>
<path d="M2 6H8V8H2V6Z" fill="black"/>
<path d="M12 24H2V26H12V24Z" fill="black"/>
<path d="M29.5501 13.9501H26.0501L26.0401 13.9401V10.6401C26.0401 10.0201 25.2501 9.71005 24.7801 10.1501L19.1701 15.4501C18.8801 15.7201 18.8801 16.1701 19.1701 16.4401L24.7801 21.7401C25.2501 22.1801 26.0501 21.8701 26.0501 21.2501V17.9501H29.5501C29.8301 17.9501 30.0501 17.7301 30.0501 17.4501V14.4501C30.0501 14.1701 29.8301 13.9501 29.5501 13.9501Z" fill="black"/>
</svg>
