<svg width="32" height="32" viewBox="0 0 32 32" fill="none" xmlns="http://www.w3.org/2000/svg">
<path fill-rule="evenodd" clip-rule="evenodd" d="M5.1199 22.6301L4.2199 27.6301H0.149902L4.0599 6.04012C4.3799 4.59012 5.4899 3.62012 6.7899 3.62012H9.8999C11.1799 3.62012 12.2999 4.58012 12.5999 5.95012L16.9399 27.6301H12.8599L11.8599 22.6301H5.1199ZM8.8599 7.63012H7.8399L5.8499 18.6301H11.0599L8.8599 7.63012Z" fill="black"/>
<path fill-rule="evenodd" clip-rule="evenodd" d="M23.6102 25.6299L23.2602 27.6299H19.2002L21.8002 12.7999C22.1002 11.4799 23.1102 10.6299 24.2902 10.6299H26.4102C27.5802 10.6299 28.5902 11.4799 28.8702 12.6799L31.7702 27.6299H27.7002L27.3102 25.6299H23.6102ZM26.5302 21.6299L25.3602 15.6199L24.3102 21.6299H26.5302Z" fill="black"/>
</svg>
