<svg width="32" height="32" viewBox="0 0 32 32" fill="none" xmlns="http://www.w3.org/2000/svg">
<path d="M15 8V29H11V8H3V4H23V8H15Z" fill="black"/>
<path fill-rule="evenodd" clip-rule="evenodd" d="M22 17C22 19.7614 19.7614 22 17 22V24C19.7614 24 22 26.2386 22 29H24C24 26.2386 26.2386 24 29 24V22C26.2386 22 24 19.7614 24 17H22ZM23 20.6076C22.4099 21.5869 21.5869 22.4099 20.6076 23C21.5869 23.5901 22.4099 24.4131 23 25.3924C23.5901 24.4131 24.4131 23.5901 25.3924 23C24.4131 22.4099 23.5901 21.5869 23 20.6076Z" fill="black"/>
</svg>
