<svg width="32" height="32" viewBox="0 0 32 32" fill="none" xmlns="http://www.w3.org/2000/svg">
<path fill-rule="evenodd" clip-rule="evenodd" d="M24 2H30V30H24V25H26V28H28V4H26V7H24V2Z" fill="black"/>
<path fill-rule="evenodd" clip-rule="evenodd" d="M3.58574 16L1.29285 13.7071L2.70706 12.2929L6.41417 16L2.70706 19.7071L1.29285 18.2929L3.58574 16Z" fill="black"/>
<path fill-rule="evenodd" clip-rule="evenodd" d="M30 6H5.99995V12C8.56329 14.0507 8.56329 17.9493 5.99995 20V26H30V6ZM15.0034 21.917L15.1632 20H13.5V18H15.3298L15.6632 14H14V12H15.8298L16.0034 9.91699L17.9965 10.0831L17.8368 12H20.3298L20.5034 9.91699L22.4965 10.0831L22.3368 12H24V14H22.1701L21.8368 18H23.5V20H21.6701L21.4965 22.0831L19.5034 21.917L19.6632 20H17.1701L16.9965 22.0831L15.0034 21.917ZM19.8298 18L20.1632 14H17.6701L17.3368 18H19.8298Z" fill="black"/>
</svg>
