<svg width="32" height="32" viewBox="0 0 32 32" fill="none" xmlns="http://www.w3.org/2000/svg">
<path fill-rule="evenodd" clip-rule="evenodd" d="M8 30H2L2 2L8 2L8 7H6L6 4H4L4 28H6V25H8L8 30Z" fill="black"/>
<path fill-rule="evenodd" clip-rule="evenodd" d="M28.5858 16L26.2929 13.7071L27.7071 12.2929L31.4142 16L27.7071 19.7071L26.2929 18.2929L28.5858 16Z" fill="black"/>
<path fill-rule="evenodd" clip-rule="evenodd" d="M2 26L26 26V20C23.4367 17.9493 23.4367 14.0507 26 12V6L2 6L2 26ZM16.9965 10.0831L16.8368 12H18.5V14H16.6701L16.3368 18H18V20H16.1701L15.9965 22.0831L14.0035 21.917L14.1632 20H11.6701L11.4965 22.0831L9.50345 21.917L9.6632 20H8V18H9.82987L10.1632 14H8.5L8.5 12H10.3299L10.5035 9.917L12.4965 10.0831L12.3368 12L14.8299 12L15.0035 9.917L16.9965 10.0831ZM12.1701 14L11.8368 18H14.3299L14.6632 14L12.1701 14Z" fill="black"/>
</svg>
