<svg width="32" height="32" viewBox="0 0 32 32" fill="none" xmlns="http://www.w3.org/2000/svg">
<path d="M27.41 10.4C27.43 10.65 27.43 10.89 27.43 11.14C27.43 18.73 21.65 27.48 11.09 27.48C7.97003 27.48 4.91003 26.59 2.28003 24.9C2.73003 24.95 3.19003 24.98 3.65003 24.98C6.24003 24.98 8.75003 24.11 10.78 22.52C8.32003 22.47 6.17003 20.87 5.41003 18.53C6.27003 18.7 7.16003 18.66 8.00003 18.43C5.32003 17.89 3.39003 15.53 3.39003 12.8V12.73C4.19003 13.17 5.08003 13.42 6.00003 13.45C3.48003 11.76 2.70003 8.41001 4.22003 5.78001C7.14003 9.37001 11.44 11.55 16.06 11.78C15.6 9.78001 16.23 7.69001 17.72 6.29001C20.03 4.12001 23.67 4.23001 25.85 6.54001C27.14 6.29001 28.37 5.81001 29.5 5.15001C29.07 6.48001 28.17 7.61001 26.97 8.33001C28.11 8.20001 29.22 7.89001 30.27 7.43001C29.5 8.59001 28.53 9.59001 27.4 10.41L27.41 10.4Z" fill="black"/>
</svg>
