<svg width="32" height="32" viewBox="0 0 32 32" fill="none" xmlns="http://www.w3.org/2000/svg">
<path d="M16.0002 2C11.5402 2 8.32024 4.04 6.11024 6.3L4.15024 4.34C3.71024 3.9 2.92024 4.24 2.91024 4.88L2.00024 13.31C1.99024 13.71 2.30024 14.02 2.70024 14.01L11.1302 13.1C11.7702 13.08 12.1102 12.3 11.6702 11.86L9.21024 9.4L8.95023 9.14C10.5802 7.48 12.8902 6.01 16.0102 6.01C21.5202 6.01 26.0102 10.5 26.0102 16.01C26.0102 21.52 21.5202 26.01 16.0102 26.01V30.01C23.7302 30.01 30.0102 23.73 30.0102 16.01C30.0102 8.29 23.7202 2 16.0002 2Z" fill="black"/>
</svg>
