<svg width="32" height="32" viewBox="0 0 32 32" fill="none" xmlns="http://www.w3.org/2000/svg">
<path d="M16.7068 5.39346L12.4641 9.6361L14.5855 11.7574L18.8281 7.51478C20.7848 5.55813 23.6267 5.24235 25.1921 6.80767C26.7574 8.37299 26.4416 11.215 24.485 13.1716L20.2423 17.4143L22.3636 19.5356L26.6063 15.293C29.2683 12.6309 30.4675 7.84051 27.3134 4.68635C24.1592 1.5322 19.3688 2.73143 16.7068 5.39346Z" fill="black"/>
<path d="M10.9999 7.00003V3.00003H8.99987V7.00003H10.9999Z" fill="black"/>
<path d="M20.9999 25V29H22.9999V25H20.9999Z" fill="black"/>
<path d="M2.99987 9.00003H6.99987V11H2.99987V9.00003Z" fill="black"/>
<path d="M24.9999 23H28.9999V21H24.9999V23Z" fill="black"/>
<path d="M19.5356 22.364L15.293 26.6066C12.6309 29.2687 7.84051 30.4679 4.68635 27.3138C1.5322 24.1596 2.73143 19.3692 5.39346 16.7072L9.6361 12.4645L11.7574 14.5858L7.51478 18.8285C5.55813 20.7851 5.24235 23.6271 6.80767 25.1924C8.37299 26.7578 11.215 26.442 13.1716 24.4853L17.4143 20.2427L19.5356 22.364Z" fill="black"/>
</svg>
