<svg width="32" height="32" viewBox="0 0 32 32" fill="none" xmlns="http://www.w3.org/2000/svg">
<path d="M22 25H26C27.65 25 29 23.65 29 22V8C29 6.35 27.65 5 26 5H6C4.35 5 3 6.35 3 8V22C3 23.65 4.35 25 6 25H10V21H7V9H25V21H22V25Z" fill="black"/>
<path d="M13.9998 19.0002V29.4999C13.9998 29.7699 14.2198 29.9999 14.4998 29.9999H17.4998C17.7798 29.9999 17.9998 29.7799 17.9998 29.4999V18.9999L21.3298 19.0799C21.9498 19.0799 22.2698 18.2799 21.8298 17.8199L16.5098 12.2099C16.2398 11.9199 15.7898 11.9199 15.5198 12.2099L10.1998 17.8199C9.75976 18.2899 10.0698 19.0799 10.6998 19.0799L13.9998 19.0002Z" fill="black"/>
</svg>
