<svg width="32" height="32" viewBox="0 0 32 32" fill="none" xmlns="http://www.w3.org/2000/svg">
<path d="M21 10C21 8.89543 20.1046 8 19 8C17.8954 8 17 8.89543 17 10L17 20C17 21.1046 17.8954 22 19 22C20.1046 22 21 21.1046 21 20L21 10Z" fill="black"/>
<path d="M15 12C15 10.8954 14.1046 10 13 10C11.8954 10 11 10.8954 11 12L11 22C11 23.1046 11.8954 24 13 24C14.1046 24 15 23.1046 15 22V12Z" fill="black"/>
<path d="M25 12C26.1046 12 27 12.8954 27 14V16C27 17.1046 26.1046 18 25 18C23.8954 18 23 17.1046 23 16V14C23 12.8954 23.8954 12 25 12Z" fill="black"/>
<path d="M9 16C9 14.8954 8.10457 14 7 14C5.89543 14 5 14.8954 5 16V18C5 19.1046 5.89543 20 7 20C8.10457 20 9 19.1046 9 18L9 16Z" fill="black"/>
</svg>
