<svg fill="none" height="120" viewBox="0 0 121 120" width="121" xmlns="http://www.w3.org/2000/svg" xmlns:xlink="http://www.w3.org/1999/xlink"><clipPath id="a"><path d="m0 0h121v120h-121z"/></clipPath><g clip-path="url(#a)" fill="#146ff4"><path clip-rule="evenodd" d="m100.834 5.78986h-80.6683c-7.9129 0-14.32759 6.36164-14.32759 14.20924v80.0019c0 7.847 6.41469 14.209 14.32759 14.209h80.6683c7.913 0 14.328-6.362 14.328-14.209v-80.0019c0-7.8476-6.415-14.20924-14.328-14.20924zm-80.6683-5.78986c-11.13719 0-20.1657 8.95389-20.1657 19.9991v80.0019c0 11.045 9.02851 19.999 20.1657 19.999h80.6683c11.137 0 20.166-8.954 20.166-19.999v-80.0019c0-11.04521-9.029-19.9991-20.166-19.9991z" fill-rule="evenodd"/><path d="m57.6508 67.6717c-5.4195 0-9.0705 2.5998-10.4966 5.5388h-.1712c-1.4832-3.052-4.7348-5.5388-9.5838-5.5388-3.9362 0-7.0167 1.4695-9.1845 4.8605h-.1711l-.5134-4.1823h-7.5302v31.6499h9.4697v-15.7683c0-4.8606 1.7685-8.2516 5.7617-8.2516 2.9664 0 4.6779 1.5824 4.6779 6.5559v17.464h9.4126v-15.7683c0-4.9172 1.7686-8.2516 5.7617-8.2516 2.9665 0 4.6779 1.5824 4.6779 6.5559v17.464h9.4697v-21.0246c0-3.3345-1.7685-11.3035-11.5804-11.3035z"/><path d="m90.6745 84.0054 9.4125-15.6554h-11.0098l-4.6777 9.6645-4.6779-9.6645h-11.01l9.4127 15.6554-10.3255 15.9945h11.1241l5.4766-10.0037 5.4764 10.0037h11.1241z"/></g></svg>