<svg fill="none" height="120" viewBox="0 0 121 120" width="121" xmlns="http://www.w3.org/2000/svg" xmlns:xlink="http://www.w3.org/1999/xlink"><clipPath id="a"><path d="m0 0h121v120h-121z"/></clipPath><g clip-path="url(#a)" fill="#146ff4"><path clip-rule="evenodd" d="m100.834 5.78986h-80.6683c-7.9129 0-14.32759 6.36164-14.32759 14.20924v80.0019c0 7.847 6.41469 14.209 14.32759 14.209h80.6683c7.913 0 14.328-6.362 14.328-14.209v-80.0019c0-7.8476-6.415-14.20924-14.328-14.20924zm-80.6683-5.78986c-11.13719 0-20.1657 8.95389-20.1657 19.9991v80.0019c0 11.045 9.02851 19.999 20.1657 19.999h80.6683c11.137 0 20.166-8.954 20.166-19.999v-80.0019c0-11.04521-9.029-19.9991-20.166-19.9991z" fill-rule="evenodd"/><path d="m43.4594 79.9998c-3.3528 0-5.6115 1.6084-6.4938 3.4266h-.1059c-.9176-1.8881-2.9292-3.4266-5.9291-3.4266-2.4351 0-4.3409.9091-5.682 3.007h-.1059l-.3176-2.5874h-4.6586v19.5804h5.8585v-9.7552c0-3.007 1.0941-5.1049 3.5645-5.1049 1.8352 0 2.894.979 2.894 4.0559v10.8042h5.8232v-9.7552c0-3.042 1.0941-5.1049 3.5645-5.1049 1.8352 0 2.894.979 2.894 4.0559v10.8042h5.8585v-13.007c0-2.0629-1.0941-6.993-7.1643-6.993z"/><path d="m63.8898 90.1047 5.8231-9.6853h-6.8113l-2.894 5.979-2.8939-5.979h-6.8115l5.8233 9.6853-6.388 9.8951h6.882l3.3881-6.1888 3.388 6.1888h6.8821z"/></g></svg>