<svg fill="none" height="120" viewBox="0 0 400 120" width="400" xmlns="http://www.w3.org/2000/svg" xmlns:xlink="http://www.w3.org/1999/xlink"><clipPath id="a"><path d="m0 0h400v120h-400z"/></clipPath><clipPath id="b"><path d="m0 0h400v120h-400z"/></clipPath><g clip-path="url(#a)" fill="#0a1324"><path d="m245.316 119.291-4.394-12.455h-2.1l-4.395 12.455h1.513l1.298-3.808h5.267l1.299 3.808zm-5.48-11.316h.054l2.224 6.298h-4.502zm15.412-1.353c-2.349 0-3.844 1.442-3.844 3.345 0 1.869 1.335 2.794 3.755 3.47 2.491.694 3.612 1.157 3.612 2.562 0 1.335-.926 2.171-2.865 2.171-1.922 0-3.327-1.299-4.164-2.562h-.071l-.783 1.316c.783 1.21 2.634 2.58 5.054 2.58 2.615 0 4.234-1.281 4.234-3.54 0-2.189-1.672-2.954-4.021-3.612-2.722-.765-3.327-1.264-3.327-2.42 0-1.05.783-2.011 2.455-2.011 1.495 0 2.722 1.014 3.452 2.242h.071l.783-1.245c-.747-1.175-2.313-2.296-4.341-2.296zm7.749-.783c-.694 0-1.068.427-1.068 1.068 0 .623.374 1.05 1.068 1.05s1.067-.427 1.067-1.05c0-.641-.373-1.068-1.067-1.068zm.676 13.452v-9.964h-1.335v9.964zm6.611-10.178c-2.437 0-4.466 2.135-4.466 5.16 0 3.043 1.548 5.231 4.591 5.231 1.655 0 3.114-.818 3.861-1.886l-.676-1.245h-.054c-.516.8-1.548 1.868-3.149 1.868-1.922 0-3.149-1.406-3.256-3.487h7.437s.018-.321.018-.588c0-3.131-1.868-5.053-4.306-5.053zm0 1.21c1.602 0 2.847 1.103 2.972 3.256h-6.068c.178-1.85 1.406-3.256 3.096-3.256zm16.192-1.21c-1.495 0-2.509.765-2.99 1.691h-.053c-.338-.926-1.246-1.691-2.58-1.691-1.352 0-2.224.605-2.758 1.531h-.035l-.161-1.317h-1.156v9.964h1.334v-5.712c0-2.064 1.068-3.256 2.438-3.256 1.139 0 1.85.641 1.85 2.367v6.601h1.335v-5.712c0-2.135 1.103-3.256 2.455-3.256 1.157 0 1.869.641 1.869 2.367v6.601h1.334v-7.1c0-1.939-1.085-3.078-2.882-3.078zm9.333 0c-2.437 0-4.466 2.135-4.466 5.16 0 3.043 1.548 5.231 4.591 5.231 1.655 0 3.114-.818 3.861-1.886l-.676-1.245h-.054c-.515.8-1.547 1.868-3.149 1.868-1.921 0-3.149-1.406-3.256-3.487h7.437s.018-.321.018-.588c0-3.131-1.868-5.053-4.306-5.053zm0 1.21c1.602 0 2.847 1.103 2.972 3.256h-6.068c.178-1.85 1.406-3.256 3.096-3.256zm10.961-1.21c-1.442 0-2.509.659-3.132 1.584h-.053l-.161-1.37h-1.156v9.964h1.334v-5.338c0-2.206 1.246-3.63 2.918-3.63 1.531 0 2.313.979 2.313 2.723v6.245h1.335v-6.512c0-2.047-1.139-3.666-3.398-3.666zm8.984 0c-2.118 0-3.256 1.353-3.256 2.723 0 1.476.907 2.277 3.149 2.846 2.58.659 2.918 1.21 2.918 2.064 0 .783-.658 1.513-2.206 1.513-1.53 0-2.669-.925-3.399-2.135h-.053l-.765 1.156c.64 1.103 2.26 2.224 4.27 2.224 2.011 0 3.47-1.121 3.47-2.758 0-1.619-.961-2.455-3.328-3.078-2.437-.64-2.74-1.138-2.74-1.85 0-.676.552-1.495 1.922-1.495 1.423 0 2.42.872 3.025 1.868h.071l.729-1.12c-.533-.819-1.797-1.958-3.807-1.958zm11.018-2.277v12.455h4.324c3.309 0 4.217-1.726 4.217-3.327 0-1.602-.783-2.58-1.958-3.025v-.036c1.299-.551 1.958-1.441 1.958-2.864 0-2.011-1.317-3.203-3.773-3.203zm1.423 1.299h3.239c1.726 0 2.437.818 2.437 2.01 0 1.388-1.085 2.189-2.597 2.189h-3.079zm0 5.462h3.114c1.797 0 2.58.819 2.58 2.189 0 1.352-.818 2.206-2.74 2.206h-2.954zm16.729 5.694v-9.964h-1.334v5.818c0 1.868-1.228 3.114-2.829 3.114-1.37 0-2.046-.819-2.046-2.42v-6.512h-1.335v6.708c0 2.046 1.068 3.469 3.239 3.469 1.387 0 2.402-.729 2.9-1.601h.053l.196 1.388zm5.564-10.178c-2.117 0-3.256 1.353-3.256 2.723 0 1.476.907 2.277 3.149 2.846 2.58.659 2.918 1.21 2.918 2.064 0 .783-.658 1.513-2.206 1.513-1.53 0-2.669-.925-3.398-2.135h-.054l-.765 1.156c.641 1.103 2.26 2.224 4.27 2.224 2.011 0 3.47-1.121 3.47-2.758 0-1.619-.961-2.455-3.327-3.078-2.438-.64-2.74-1.138-2.74-1.85 0-.676.551-1.495 1.921-1.495 1.424 0 2.42.872 3.025 1.868h.071l.73-1.12c-.534-.819-1.797-1.958-3.808-1.958zm6.946-3.274c-.694 0-1.067.427-1.067 1.068 0 .623.373 1.05 1.067 1.05s1.068-.427 1.068-1.05c0-.641-.374-1.068-1.068-1.068zm.676 13.452v-9.964h-1.334v9.964zm7.181-10.178c-1.441 0-2.509.659-3.131 1.584h-.054l-.16-1.37h-1.156v9.964h1.334v-5.338c0-2.206 1.246-3.63 2.918-3.63 1.53 0 2.313.979 2.313 2.723v6.245h1.335v-6.512c0-2.047-1.139-3.666-3.399-3.666zm9.856 0c-2.437 0-4.466 2.135-4.466 5.16 0 3.043 1.548 5.231 4.591 5.231 1.655 0 3.114-.818 3.861-1.886l-.676-1.245h-.054c-.516.8-1.548 1.868-3.149 1.868-1.922 0-3.149-1.406-3.256-3.487h7.437s.018-.321.018-.588c0-3.131-1.868-5.053-4.306-5.053zm0 1.21c1.602 0 2.847 1.103 2.972 3.256h-6.068c.178-1.85 1.406-3.256 3.096-3.256zm9.519-1.21c-2.117 0-3.256 1.353-3.256 2.723 0 1.476.908 2.277 3.149 2.846 2.58.659 2.919 1.21 2.919 2.064 0 .783-.659 1.513-2.207 1.513-1.53 0-2.669-.925-3.398-2.135h-.054l-.765 1.156c.641 1.103 2.26 2.224 4.271 2.224 2.01 0 3.469-1.121 3.469-2.758 0-1.619-.961-2.455-3.327-3.078-2.438-.64-2.74-1.138-2.74-1.85 0-.676.551-1.495 1.921-1.495 1.424 0 2.42.872 3.025 1.868h.071l.73-1.12c-.534-.819-1.797-1.958-3.808-1.958zm9.348 0c-2.117 0-3.256 1.353-3.256 2.723 0 1.476.908 2.277 3.15 2.846 2.58.659 2.918 1.21 2.918 2.064 0 .783-.659 1.513-2.207 1.513-1.53 0-2.669-.925-3.398-2.135h-.053l-.766 1.156c.641 1.103 2.26 2.224 4.271 2.224 2.01 0 3.469-1.121 3.469-2.758 0-1.619-.96-2.455-3.327-3.078-2.438-.64-2.74-1.138-2.74-1.85 0-.676.552-1.495 1.922-1.495 1.423 0 2.419.872 3.024 1.868h.072l.729-1.12c-.534-.819-1.797-1.958-3.808-1.958z"/><g clip-path="url(#b)"><path d="m187.137 55.167c-6.785 0-11.356 3.2853-13.141 6.9991h-.214c-1.857-3.8567-5.928-6.9991-11.999-6.9991-4.928 0-8.785 1.8569-11.499 6.1421h-.214l-.643-5.2851h-9.427v39.9951h11.856v-19.9261c0-6.1421 2.214-10.4273 7.213-10.4273 3.714 0 5.856 1.9997 5.856 8.2847v22.0687h11.785v-19.9261c0-6.2136 2.214-10.4273 7.213-10.4273 3.714 0 5.857 1.9997 5.857 8.2847v22.0687h11.855v-26.5682c0-4.2137-2.214-14.2839-14.498-14.2839z"/><path d="m226.053 55.167c-10.999 0-19.426 8.1418-19.426 21.0688 0 13.1412 8.499 20.6403 20.212 20.6403 7.284 0 12.712-2.4283 15.141-4.3566l-3.786-9.8559h-.571c-2.428 1.8569-5.856 3.8566-10.999 3.8566-4.999 0-8.213-2.6425-8.427-6.4992h26.496s.072-2.3568.072-3.5709c0-12.7128-7.428-21.2831-18.712-21.2831zm.214 10.0701c4.5 0 7.285 3.0711 7.642 6.2136h-15.284c.5-3.2139 3.214-6.2136 7.642-6.2136z"/><path d="m272.903 55.167c-5.428 0-9.856 2.5711-12.141 6.1421h-.214l-.643-5.2851h-9.428v39.9951h11.856v-19.9261c0-6.9992 4.214-10.4273 8.356-10.4273 3.571 0 6.285 2.3568 6.285 7.0705v23.2829h11.856v-26.7824c0-7.642-5.142-14.0697-15.927-14.0697z"/><path d="m334.09 96.019v-52.9935h-11.427v17.1407h-.143c-2.214-3.1424-6.142-4.9993-10.856-4.9993-10.713 0-17.855 9.4274-17.855 21.4259 0 11.6414 6.785 20.2832 17.569 20.2832 6.357 0 9.856-2.4997 12.142-6.1421h.214l1 5.2851zm-19.641-30.3534c5.143 0 8.642 4.2852 8.642 10.3558 0 6.4992-3.571 9.9274-8.784 9.9274-5.214 0-8.714-3.7853-8.714-9.8559 0-6.0707 3.714-10.4273 8.856-10.4273z"/><path d="m347.913 36.5263c-4.785 0-7.427 2.9282-7.427 7.2848 0 4.2852 2.642 7.4277 7.427 7.4277 4.786 0 7.428-3.1425 7.428-7.4277 0-4.3566-2.642-7.2848-7.428-7.2848zm5.785 59.4927v-39.9951h-11.784v39.9951z"/><path d="m386.295 75.8072 11.784-19.7833h-13.784l-5.856 12.2128-5.857-12.2128h-13.784l11.784 19.7833-12.927 20.2118h13.927l6.857-12.6413 6.856 12.6413h13.927z"/><path clip-rule="evenodd" d="m100.834 5.78986h-80.6683c-7.9129 0-14.32759 6.36164-14.32759 14.20924v80.0019c0 7.847 6.41469 14.209 14.32759 14.209h80.6683c7.913 0 14.328-6.362 14.328-14.209v-80.0019c0-7.8476-6.415-14.20924-14.328-14.20924zm-80.6683-5.78986c-11.13719 0-20.1657 8.95389-20.1657 19.9991v80.0019c0 11.045 9.02851 19.999 20.1657 19.999h80.6683c11.137 0 20.166-8.954 20.166-19.999v-80.0019c0-11.04521-9.029-19.9991-20.166-19.9991z" fill-rule="evenodd"/><path d="m47.4587 75.9998c-3.3528 0-5.6115 1.6084-6.4938 3.4266h-.1059c-.9176-1.8881-2.9292-3.4266-5.9291-3.4266-2.4351 0-4.3409.9091-5.682 3.007h-.1059l-.3176-2.5874h-4.6586v19.5804h5.8585v-9.7552c0-3.007 1.0941-5.1049 3.5645-5.1049 1.8352 0 2.894.979 2.894 4.0559v10.8042h5.8232v-9.7552c0-3.042 1.0941-5.1049 3.5645-5.1049 1.8352 0 2.894.979 2.894 4.0559v10.8042h5.8585v-13.007c0-2.0629-1.0941-6.993-7.1643-6.993z"/><path d="m67.8908 86.1047 5.8232-9.6853h-6.8114l-2.8939 5.979-2.894-5.979h-6.8114l5.8232 9.6853-6.3879 9.8951h6.882l3.3881-6.1888 3.388 6.1888h6.882z"/></g></g></svg>