<svg fill="none" height="61" viewBox="0 0 260 61" width="260" xmlns="http://www.w3.org/2000/svg" xmlns:xlink="http://www.w3.org/1999/xlink"><clipPath id="a"><path d="m0 0h260v61h-260z"/></clipPath><g clip-path="url(#a)" fill="#0a1325"><path d="m47.137 19.1669c-6.785 0-11.356 3.2853-13.141 6.9991h-.214c-1.857-3.8567-5.928-6.9991-11.999-6.9991-4.928 0-8.785 1.8569-11.499 6.1421h-.214l-.643-5.2851h-9.427v39.9951h11.856v-19.9261c0-6.1421 2.214-10.4273 7.213-10.4273 3.714 0 5.856 1.9997 5.856 8.2847v22.0687h11.785v-19.9261c0-6.2136 2.214-10.4273 7.213-10.4273 3.714 0 5.857 1.9997 5.857 8.2847v22.0687h11.855v-26.5682c0-4.2137-2.214-14.2839-14.498-14.2839z"/><path d="m86.0529 19.1669c-10.999 0-19.4259 8.1418-19.4259 21.0688 0 13.1412 8.499 20.6403 20.212 20.6403 7.284 0 12.712-2.4283 15.141-4.3566l-3.786-9.8559h-.571c-2.428 1.8569-5.8561 3.8566-10.9991 3.8566-4.999 0-8.2129-2.6425-8.4269-6.4992h26.496s.072-2.3568.072-3.5709c0-12.7128-7.4281-21.2831-18.7121-21.2831zm.2141 10.0701c4.5 0 7.285 3.0711 7.642 6.2136h-15.284c.5-3.2139 3.214-6.2136 7.642-6.2136z"/><path d="m132.903 19.1669c-5.428 0-9.856 2.5711-12.141 6.1421h-.214l-.643-5.2851h-9.428v39.9951h11.856v-19.9261c0-6.9992 4.214-10.4273 8.356-10.4273 3.571 0 6.285 2.3568 6.285 7.0705v23.2829h11.856v-26.7824c0-7.642-5.142-14.0697-15.927-14.0697z"/><path d="m194.09 60.019v-52.99349h-11.427v17.14069h-.143c-2.214-3.1424-6.142-4.9993-10.856-4.9993-10.713 0-17.855 9.4274-17.855 21.4259 0 11.6414 6.785 20.2832 17.569 20.2832 6.357 0 9.856-2.4997 12.142-6.1421h.214l1 5.2851zm-19.641-30.3534c5.143 0 8.642 4.2852 8.642 10.3558 0 6.4992-3.571 9.9274-8.784 9.9274-5.214 0-8.714-3.7853-8.714-9.8559 0-6.0707 3.714-10.4273 8.856-10.4273z"/><path d="m207.913.526245c-4.785 0-7.427 2.928205-7.427 7.284805 0 4.28515 2.642 7.42765 7.427 7.42765 4.786 0 7.428-3.1425 7.428-7.42765 0-4.3566-2.642-7.284805-7.428-7.284805zm5.785 59.492655v-39.9951h-11.784v39.9951z"/><path d="m246.294 39.8072 11.784-19.7833h-13.784l-5.856 12.2128-5.857-12.2128h-13.784l11.784 19.7833-12.927 20.2118h13.927l6.857-12.6413 6.856 12.6413h13.927z"/></g></svg>