<svg width="32" height="32" viewBox="0 0 32 32" fill="none" xmlns="http://www.w3.org/2000/svg">
<path fill-rule="evenodd" clip-rule="evenodd" d="M16 26.7445L11.7545 28.1602L10.099 27.056L11.9015 26.454L11.3485 24.795L8.2545 25.8257L7.25 25.1572V20.3745C7.25 20.0437 7.06275 19.741 6.767 19.5922L3.75 18.0837V13.9152L6.375 12.6027L9 13.9152V16.8745C9 17.207 9.18723 17.5097 9.483 17.6585L12.983 19.4085L13.767 17.8422L10.75 16.3337V13.9152L13.767 12.4085C14.0628 12.2597 14.25 11.957 14.25 11.6245V8.99948H12.5V11.0837L9.87498 12.3962L7.25 11.0837V6.84347L9 5.67623V8.99948H10.75V4.51073L11.7545 3.84047L16 5.25623V26.7445ZM25.625 24.7495C26.1063 24.7495 26.5 25.1415 26.5 25.6245C26.5 26.1075 26.1063 26.4995 25.625 26.4995C25.1438 26.4995 24.75 26.1075 24.75 25.6245C24.75 25.1415 25.1438 24.7495 25.625 24.7495ZM23.875 5.49947C24.3563 5.49947 24.75 5.89148 24.75 6.37448C24.75 6.85748 24.3563 7.24948 23.875 7.24948C23.3937 7.24948 23 6.85748 23 6.37448C23 5.89148 23.3937 5.49947 23.875 5.49947ZM27.375 15.9995C27.8562 15.9995 28.25 16.3915 28.25 16.8745C28.25 17.3575 27.8562 17.7495 27.375 17.7495C26.8938 17.7495 26.5 17.3575 26.5 16.8745C26.5 16.3915 26.8938 15.9995 27.375 15.9995ZM24.911 17.7495C25.2732 18.7662 26.2358 19.4995 27.375 19.4995C28.8222 19.4995 30 18.3235 30 16.8745C30 15.4272 28.8222 14.2495 27.375 14.2495C26.2358 14.2495 25.2732 14.9845 24.911 15.9995H17.75V12.4995H23.875C24.358 12.4995 24.75 12.1092 24.75 11.6245V8.8385C25.7667 8.47625 26.5 7.51373 26.5 6.37448C26.5 4.92722 25.3223 3.74948 23.875 3.74948C22.4277 3.74948 21.25 4.92722 21.25 6.37448C21.25 7.51373 21.9833 8.47625 23 8.8385V10.7495H17.75V4.62448C17.75 4.24823 17.5085 3.91397 17.1515 3.79498L11.9015 2.04498C11.6442 1.95923 11.3643 1.99773 11.1402 2.14648L5.89025 5.64647C5.647 5.80922 5.5 6.08222 5.5 6.37448V11.0837L2.483 12.5922C2.18725 12.741 2 13.0437 2 13.3745V18.6245C2 18.957 2.18725 19.2597 2.483 19.4085L5.5 20.9152V25.6245C5.5 25.9167 5.647 26.1915 5.89025 26.3525L11.1402 29.8525C11.2855 29.9505 11.4535 29.9995 11.625 29.9995C11.7177 29.9995 11.8105 29.9855 11.9015 29.954L17.1515 28.204C17.5085 28.0867 17.75 27.7525 17.75 27.3745V22.9995H21.7628L23.2555 24.494L23.2782 24.4712C23.1068 24.8212 23 25.2097 23 25.6245C23 27.0717 24.1778 28.2494 25.625 28.2494C27.0723 28.2494 28.25 27.0717 28.25 25.6245C28.25 24.1772 27.0723 22.9995 25.625 22.9995C25.2085 22.9995 24.82 23.1062 24.4718 23.2795L24.4945 23.2567L22.7445 21.5067C22.58 21.3422 22.3578 21.2495 22.125 21.2495H17.75V17.7495H24.911Z" fill="black"/>
</svg>
