<svg width="32" height="32" viewBox="0 0 32 32" fill="none" xmlns="http://www.w3.org/2000/svg">
<path fill-rule="evenodd" clip-rule="evenodd" d="M4 6C4 4.89772 4.89772 4 6 4H18V6H6V18H4V6Z" fill="black"/>
<path fill-rule="evenodd" clip-rule="evenodd" d="M8 10C8 8.89543 8.89543 8 10 8H26C27.1046 8 28 8.89543 28 10V26C28 27.1046 27.1046 28 26 28H10C8.89543 28 8 27.1046 8 26V10ZM26 10H10V26H26V10Z" fill="black"/>
<path fill-rule="evenodd" clip-rule="evenodd" d="M19 13V23H17V13H19Z" fill="black"/>
<path fill-rule="evenodd" clip-rule="evenodd" d="M13 17H23V19H13V17Z" fill="black"/>
</svg>
