<svg width="32" height="32" viewBox="0 0 32 32" fill="none" xmlns="http://www.w3.org/2000/svg">
<path fill-rule="evenodd" clip-rule="evenodd" d="M3 5C3 3.89543 3.89543 3 5 3H27C28.1046 3 29 3.89543 29 5V27C29 28.1046 28.1046 29 27 29H5C3.89543 29 3 28.1046 3 27V5ZM5 5H27V27H5L5 5Z" fill="black"/>
<path fill-rule="evenodd" clip-rule="evenodd" d="M15 22C15 18.134 18.134 15 22 15V17C19.2386 17 17 19.2386 17 22H15Z" fill="black"/>
<path fill-rule="evenodd" clip-rule="evenodd" d="M10 15C13.866 15 17 18.134 17 22H15C15 19.2386 12.7614 17 10 17V15Z" fill="black"/>
<path fill-rule="evenodd" clip-rule="evenodd" d="M17 10C17 13.866 13.866 17 10 17V15C12.7614 15 15 12.7614 15 10H17Z" fill="black"/>
<path fill-rule="evenodd" clip-rule="evenodd" d="M22 17C18.134 17 15 13.866 15 10H17C17 12.7614 19.2386 15 22 15V17Z" fill="black"/>
</svg>
