<svg width="32" height="32" viewBox="0 0 32 32" fill="none" xmlns="http://www.w3.org/2000/svg">
<path fill-rule="evenodd" clip-rule="evenodd" d="M18.16 22C18.0716 22 18 22.0716 18 22.16V27.84C18 27.9284 18.0716 28 18.16 28H27.84C27.9284 28 28 27.9284 28 27.84V22.16C28 22.0716 27.9284 22 27.84 22H18.16ZM16 22.16C16 20.9671 16.9671 20 18.16 20H27.84C29.0329 20 30 20.9671 30 22.16V27.84C30 29.0329 29.0329 30 27.84 30H18.16C16.9671 30 16 29.0329 16 27.84V22.16Z" fill="black"/>
<path fill-rule="evenodd" clip-rule="evenodd" d="M21.31 16C20.5851 16 20 16.5895 20 17.31V21H18V17.31C18 15.4905 19.4749 14 21.31 14H24.69C26.5095 14 28 15.4749 28 17.31V21H26V17.31C26 16.5851 25.4105 16 24.69 16H21.31Z" fill="black"/>
<path d="M2 22C2 23.1023 2.89772 24 4 24H13V22H4V14.3862L4.40231 14H17V12H4.42857L4 11.55V4H24V11H26V4C26 2.89771 25.1023 2 24 2H4C2.89772 2 2 2.89771 2 4V12.35L2.58895 12.9684L2 13.5338V22Z" fill="black"/>
<path d="M6 8H8V10H6V8Z" fill="black"/>
<path d="M11 8H22V10H11V8Z" fill="black"/>
<path d="M6 18H8V20H6V18Z" fill="black"/>
<path d="M11 18H15V20H11V18Z" fill="black"/>
</svg>
