<svg width="32" height="32" viewBox="0 0 32 32" fill="none" xmlns="http://www.w3.org/2000/svg">
<path fill-rule="evenodd" clip-rule="evenodd" d="M3.2103 7.10821C2.30322 5.76964 3.28728 4 4.87001 4H9.00002V6H4.87519L14 19.6974V27.6126L18 26.2792V19.6974L27.1248 6H23V4H27.13C28.7339 4 29.672 5.78428 28.7923 7.10441V7.10441L20 20.3026V27.7208L12 30.3874V20.3026L3.2103 7.10821Z" fill="black"/>
<path fill-rule="evenodd" clip-rule="evenodd" d="M15 2C15 4.76142 12.7614 7 10 7V9C12.7614 9 15 11.2386 15 14H17C17 11.2386 19.2386 9 22 9V7C19.2386 7 17 4.76142 17 2H15ZM16 5.60759C15.4099 6.58688 14.5869 7.40992 13.6076 8C14.5869 8.59008 15.4099 9.41312 16 10.3924C16.5901 9.41312 17.4131 8.59008 18.3924 8C17.4131 7.40992 16.5901 6.58688 16 5.60759Z" fill="black"/>
</svg>
