<svg width="32" height="32" viewBox="0 0 32 32" fill="none" xmlns="http://www.w3.org/2000/svg">
<path fill-rule="evenodd" clip-rule="evenodd" d="M24 4H8C5.79086 4 4 5.79086 4 8V24C4 26.2091 5.79086 28 8 28H24C26.2091 28 28 26.2091 28 24V8C28 5.79086 26.2091 4 24 4ZM8 2C4.68629 2 2 4.68629 2 8V24C2 27.3137 4.68629 30 8 30H24C27.3137 30 30 27.3137 30 24V8C30 4.68629 27.3137 2 24 2H8Z" fill="black"/>
<path fill-rule="evenodd" clip-rule="evenodd" d="M8.29289 22.2929L22.2929 8.29289L23.7071 9.70711L9.70711 23.7071L8.29289 22.2929Z" fill="black"/>
</svg>
