<svg width="32" height="32" viewBox="0 0 32 32" fill="none" xmlns="http://www.w3.org/2000/svg">
<path d="M16 17.26L16.1 21.76C16.1 21.9 16.22 22.01 16.35 22L20.85 21.9C21.07 21.9 21.18 21.6199 21.02 21.4699L16.42 17.07C16.26 16.92 15.99 17.03 16 17.26Z" fill="black"/>
<path fill-rule="evenodd" clip-rule="evenodd" d="M22.8365 16.0104C26.7027 15.9173 29.8965 18.9883 29.9897 22.8459C30.0832 26.7123 27.012 29.9065 23.1542 29.9998C21.2265 30.0465 19.4526 29.2982 18.1594 28.0633L19.5407 26.6169C20.4675 27.5019 21.7334 28.0336 23.1058 28.0004C25.868 27.9336 28.0569 25.6478 27.9903 22.8942C27.9236 20.1321 25.6378 17.9432 22.8842 18.0098L22.8828 18.0098C20.6911 18.0598 18.8582 19.5091 18.2338 21.4906L16.3263 20.8895C17.2018 18.1113 19.7686 16.0806 22.8365 16.0104Z" fill="black"/>
<path fill-rule="evenodd" clip-rule="evenodd" d="M2 4C2 2.89772 2.89772 2 4 2H24C25.1023 2 26 2.89772 26 4V14H24V4H4V18H7V22.0568L12.6795 18H14V20H13.3205L5 25.9432V20H4C2.89772 20 2 19.1023 2 18V4Z" fill="black"/>
</svg>
