<svg width="32" height="32" viewBox="0 0 32 32" fill="none" xmlns="http://www.w3.org/2000/svg">
<path fill-rule="evenodd" clip-rule="evenodd" d="M2 4C2 2.89772 2.89772 2 4 2H28C29.1023 2 30 2.89772 30 4V22C30 23.1023 29.1023 24 28 24H15.3333L6 31V24H4C2.89772 24 2 23.1023 2 22V4ZM28 4H4V22H8V27L14.6667 22H28V4Z" fill="black"/>
<path fill-rule="evenodd" clip-rule="evenodd" d="M15 7C15 9.76142 12.7614 12 10 12V14C12.7614 14 15 16.2386 15 19H17C17 16.2386 19.2386 14 22 14V12C19.2386 12 17 9.76142 17 7H15ZM16 10.6076C15.4099 11.5869 14.5869 12.4099 13.6076 13C14.5869 13.5901 15.4099 14.4131 16 15.3924C16.5901 14.4131 17.4131 13.5901 18.3924 13C17.4131 12.4099 16.5901 11.5869 16 10.6076Z" fill="black"/>
</svg>
