<svg width="32" height="32" viewBox="0 0 32 32" fill="none" xmlns="http://www.w3.org/2000/svg">
<path fill-rule="evenodd" clip-rule="evenodd" d="M14 12.5737L17.5113 15.0001L14 17.4264V12.5737ZM13.7833 10.0651C13.4042 9.94157 13.0034 10.0003 12.6852 10.1877C12.2722 10.431 12 10.8831 12 11.3983V18.5951C12 19.114 12.2739 19.5678 12.6885 19.8118C13.1084 20.0589 13.6761 20.0847 14.147 19.7558L19.4361 16.1011L19.4431 16.0961C20.1856 15.5639 20.1856 14.4363 19.4431 13.904L19.4361 13.899L13.8877 10.0651H13.7833Z" fill="black"/>
<path fill-rule="evenodd" clip-rule="evenodd" d="M25 25V16H27V25H25Z" fill="black"/>
<path d="M26 29.25C26.6904 29.25 27.25 28.6904 27.25 28C27.25 27.3096 26.6904 26.75 26 26.75C25.3096 26.75 24.75 27.3096 24.75 28C24.75 28.6904 25.3096 29.25 26 29.25Z" fill="black"/>
<path fill-rule="evenodd" clip-rule="evenodd" d="M15 6C10.0294 6 6 10.0294 6 15C6 19.9706 10.0294 24 15 24C17.0272 24 18.8953 23.3309 20.3994 22.2012L21.6006 23.8003C19.762 25.1813 17.4752 26 15 26C8.92487 26 4 21.0751 4 15C4 8.92487 8.92487 4 15 4C19.9269 4 24.0948 7.23844 25.4962 11.7004L23.5881 12.2997C22.441 8.64735 19.0284 6 15 6Z" fill="black"/>
</svg>
