<svg width="32" height="32" viewBox="0 0 32 32" fill="none" xmlns="http://www.w3.org/2000/svg">
<path d="M23.5 19.5C23.5 20.3284 22.8284 21 22 21C21.1716 21 20.5 20.3284 20.5 19.5C20.5 18.6716 21.1716 18 22 18C22.8284 18 23.5 18.6716 23.5 19.5Z" fill="black"/>
<path d="M21 20H23V23H21V20Z" fill="black"/>
<path fill-rule="evenodd" clip-rule="evenodd" d="M28 19.4575V15.5616L22 14.0616L16 15.5616V19.4575C16 22.2158 17.421 24.7796 19.76 26.2415L22 27.6415L24.24 26.2415C26.579 24.7796 28 22.2158 28 19.4575ZM22 30L18.7 27.9375C15.7762 26.1101 14 22.9054 14 19.4575V15.5616C14 14.6438 14.6246 13.8439 15.5149 13.6213L22 12L28.4851 13.6213C29.3754 13.8439 30 14.6438 30 15.5616V19.4575C30 22.9054 28.2238 26.1101 25.3 27.9375L22 30Z" fill="black"/>
<path fill-rule="evenodd" clip-rule="evenodd" d="M2 22C2 23.1023 2.89772 24 4 24H12V22H4V14.3862L4.40231 14H12V12H4.42857L4 11.55V4H24V10H26V4C26 2.89771 25.1023 2 24 2H4C2.89772 2 2 2.89771 2 4V12.35L2.58895 12.9684L2 13.5338V22ZM22 10V8H11V10H22ZM6 8H8V10H6V8ZM6 18H8V20H6V18Z" fill="black"/>
</svg>
