<svg width="32" height="32" viewBox="0 0 32 32" fill="none" xmlns="http://www.w3.org/2000/svg">
<path fill-rule="evenodd" clip-rule="evenodd" d="M9.23565 11.3069C8.61555 10.3324 9.28513 9 10.4993 9H21.6693C22.8558 9 23.5626 10.3174 22.933 11.3069L22.9308 11.3103L19.0893 17.2934V21.7808L13.0893 23.2808V18.85H13.0793V17.2934L9.23565 11.3069ZM15.0793 16.85H15.0893V20.7192L17.0893 20.2192V16.7066L20.7533 11H11.4154L15.0793 16.7066V16.85Z" fill="black"/>
<path fill-rule="evenodd" clip-rule="evenodd" d="M4 4C4 2.89772 4.89772 2 6 2H26C27.1023 2 28 2.89772 28 4V15C28 19.7549 26.4018 23.0124 24.0821 25.3321C21.8019 27.6123 18.8837 28.9236 16.3714 29.9285L16 30.077L15.6286 29.9285C13.1163 28.9236 10.1981 27.6123 7.91789 25.3321C5.59819 23.0124 4 19.7549 4 15V4ZM26 4H6V15C6 19.2451 7.40181 21.9876 9.33211 23.9179C11.204 25.7898 13.6286 26.9564 16 27.9217C18.3714 26.9564 20.796 25.7898 22.6679 23.9179C24.5982 21.9876 26 19.2451 26 15V4Z" fill="black"/>
</svg>
