<svg width="32" height="32" viewBox="0 0 32 32" fill="none" xmlns="http://www.w3.org/2000/svg">
<path d="M14 6V28H12V6H4V4H22V6H14Z" fill="black"/>
<path fill-rule="evenodd" clip-rule="evenodd" d="M21 17C21 19.7614 18.7614 22 16 22V24C18.7614 24 21 26.2386 21 29H23C23 26.2386 25.2386 24 28 24V22C25.2386 22 23 19.7614 23 17H21ZM22 20.6076C21.4099 21.5869 20.5869 22.4099 19.6076 23C20.5869 23.5901 21.4099 24.4131 22 25.3924C22.5901 24.4131 23.4131 23.5901 24.3924 23C23.4131 22.4099 22.5901 21.5869 22 20.6076Z" fill="black"/>
</svg>
