<svg width="32" height="32" viewBox="0 0 32 32" fill="none" xmlns="http://www.w3.org/2000/svg">
<path fill-rule="evenodd" clip-rule="evenodd" d="M26 12V6L2 6L2 26L26 26V20C23.4367 17.9493 23.4367 14.0507 26 12ZM24 20.8696C21.4367 18.1456 21.4367 13.8544 24 11.1304V8L4 8L4 24L24 24V20.8696Z" fill="black"/>
<path fill-rule="evenodd" clip-rule="evenodd" d="M8 30H2L2 2L8 2L8 7H6L6 4H4L4 28H6L6 25H8L8 30Z" fill="black"/>
<path fill-rule="evenodd" clip-rule="evenodd" d="M28.5858 16L26.2929 13.7071L27.7071 12.2929L31.4142 16L27.7071 19.7071L26.2929 18.2929L28.5858 16Z" fill="black"/>
<path d="M18 20L8 20V18L18 18L18 20Z" fill="black"/>
<path d="M18.5 14L8.5 14V12L18.5 12V14Z" fill="black"/>
<path fill-rule="evenodd" clip-rule="evenodd" d="M16.9965 10.083L15.9965 22.083L14.0035 21.917L15.0035 9.91696L16.9965 10.083Z" fill="black"/>
<path fill-rule="evenodd" clip-rule="evenodd" d="M12.4965 10.083L11.4965 22.083L9.50345 21.917L10.5035 9.91696L12.4965 10.083Z" fill="black"/>
</svg>
