<svg width="32" height="32" viewBox="0 0 32 32" fill="none" xmlns="http://www.w3.org/2000/svg">
<path fill-rule="evenodd" clip-rule="evenodd" d="M5.99995 20V26H30V6H5.99995V12C8.56329 14.0507 8.56329 17.9493 5.99995 20ZM7.99995 11.1304C10.5633 13.8544 10.5633 18.1456 7.99995 20.8696V24H28V8H7.99995V11.1304Z" fill="black"/>
<path fill-rule="evenodd" clip-rule="evenodd" d="M24 2H30V30H24V25H26V28H28V4H26V7H24V2Z" fill="black"/>
<path fill-rule="evenodd" clip-rule="evenodd" d="M3.58574 16L1.29285 13.7071L2.70706 12.2929L6.41417 16L2.70706 19.7071L1.29285 18.2929L3.58574 16Z" fill="black"/>
<path d="M14 12H24V14H14V12Z" fill="black"/>
<path d="M13.5 18H23.5V20H13.5V18Z" fill="black"/>
<path fill-rule="evenodd" clip-rule="evenodd" d="M15.0034 21.917L16.0034 9.91695L17.9965 10.083L16.9965 22.083L15.0034 21.917Z" fill="black"/>
<path fill-rule="evenodd" clip-rule="evenodd" d="M19.5034 21.917L20.5034 9.91695L22.4965 10.083L21.4965 22.083L19.5034 21.917Z" fill="black"/>
</svg>
