<svg width="32" height="32" viewBox="0 0 32 32" fill="none" xmlns="http://www.w3.org/2000/svg">
<path fill-rule="evenodd" clip-rule="evenodd" d="M11 12H4V10H11V12Z" fill="black"/>
<path fill-rule="evenodd" clip-rule="evenodd" d="M28 6H4V4H28V6Z" fill="black"/>
<path fill-rule="evenodd" clip-rule="evenodd" d="M16.7019 13.3023L19.5312 16.2259L15.24 20.5172L12.3143 17.6858C11.8253 18.9002 11.6554 21.0537 13.7353 23.2069C15.0867 24.5094 16.3136 24.7758 17.2265 24.7283C18.1877 24.6782 18.9076 24.2719 19.1473 24.1007L19.8401 23.6059L25.4891 29.3108L24.0679 30.7181L19.557 26.1625C19.0006 26.4254 18.2367 26.6784 17.3305 26.7256C15.846 26.8029 14.0773 26.321 12.3331 24.633L12.3217 24.622L12.3106 24.6106C8.69475 20.8817 10.0723 16.7565 11.4214 15.4073L12.117 14.7117L15.217 17.7117L16.7258 16.2029L13.7258 13.1029L14.4214 12.4073C15.1221 11.7067 16.5001 11.0459 18.1267 11.0023C19.8078 10.9573 21.747 11.5683 23.5354 13.4069C25.2805 15.1013 25.7674 16.8517 25.6896 18.3295C25.6421 19.2327 25.3855 19.9918 25.148 20.5248L29.6891 25.1108L28.2679 26.5181L22.6832 20.8781L23.0603 20.2183C23.2424 19.8995 23.6427 19.1688 23.6924 18.2244C23.7394 17.3304 23.4787 16.1352 22.1331 14.833L22.1217 14.822L22.1106 14.8106C20.7021 13.358 19.2957 12.9717 18.1803 13.0016C17.6041 13.017 17.1006 13.1428 16.7019 13.3023Z" fill="black"/>
</svg>
