<?xml version="1.0" encoding="UTF-8"?><svg id="Layer_2" xmlns="http://www.w3.org/2000/svg" viewBox="0 0 297.9948 120"><g id="Components"><path id="bf33b8bd-c608-4fc9-8d52-644bddf3088e_5" d="M100.42,20.277c-.08.173-.26.282-.45.282-.1901,0-.37-.11-.4501-.283C93.9701,9.077,82.02,0,64.26,0c-14.46,0-25.7899,5.395-33.7899,17.837-.0801.126-.2301.205-.38.205-.2201,0-.41-.166-.4301-.387l-1.65-13.491c-.11-.883-.95-1.483-1.8199-1.294L1.1901,8.309c-.7001.151-1.1901.766-1.1901,1.477v108.704c0,.83.67,1.51,1.51,1.51h31.9501c.83,0,1.51-.6801,1.51-1.51v-57.02c0-18.04,6.5299-30.631,21.2799-30.631,10.9601,0,17.28,5.874,17.28,24.331v63.32c0,.83.6801,1.51,1.51,1.51h31.74c.8301,0,1.51-.6801,1.51-1.51v-57.02c0-18.25,6.53-30.631,21.28-30.631,10.96,0,17.28,5.874,17.28,24.331v63.32c0,.83.6799,1.51,1.51,1.51h68.5499c.54,0,1.03-.28,1.3101-.74l18.47-31.12c.58-.98,2.01-.98,2.6,0l18.47,31.12c.27.46.76.74,1.3.74h37.42c1.2,0,1.9199-1.3199,1.2699-2.33l-36.1-56.15c-.3099-.48-.3199-1.1-.02-1.59l32.88-54.922c.61-1.008-.12-2.288-1.2999-2.288h-37.05c-.5599,0-1.0699.311-1.34.808l-15.49,29.441c-.5701,1.077-2.12,1.077-2.6801,0l-15.5-29.441c-.26-.497-.78-.808-1.34-.808h-37.05c-1.1799,0-1.8999,1.28-1.2999,2.288l32.89,54.922c.2899.49.2799,1.11-.03,1.59l-29.73,46.25c-.8101,1.26-2.77.6899-2.77-.8101V41.96c0-12.38-6.53-41.96-42.77-41.96-19.84,0-33.26,9.484-38.63,20.277Z" style="fill:#fff;"/></g></svg>