<?xml version="1.0" encoding="UTF-8"?><svg id="Layer_2" xmlns="http://www.w3.org/2000/svg" viewBox="0 0 811 239.898"><g id="Components"><g id="ee40c223-d0e6-4cc5-8bcd-a139df66ad07_5"><path d="M623.2603,22.978c0-13.742,8.3599-22.978,23.5-22.978s23.5,9.236,23.5,22.978c0,13.516-8.3604,23.428-23.5,23.428s-23.5-9.912-23.5-23.428Z" style="fill:#fff;"/><path d="M603.8701,14.322c.9302-.167,1.7798.544,1.7798,1.483v163.842c0,.833-.6797,1.508-1.5098,1.508h-26.8501c-.7197,0-1.3398-.516-1.48-1.227l-2.8501-15.044c-.0498-.232-.25-.4-.48-.4-.1699,0-.3301.087-.4199.23-7.23,11.364-18.29,19.143-38.27,19.143-34.1201,0-55.5898-27.257-55.5898-63.977,0-37.845,22.6001-67.581,56.5-67.581,14.8398,0,27.23,5.808,34.25,15.643.0601.079.1499.126.25.126.1597,0,.29-.133.29-.298V21.76c0-.729.5298-1.354,1.2397-1.483l33.1401-5.955ZM570.8501,118.078c0-19.148-11.0698-32.664-27.3398-32.664s-28.02,13.742-28.02,32.89,11.0698,31.087,27.5601,31.087c16.5,0,27.7998-10.812,27.7998-31.313Z" style="fill:#fff; fill-rule:evenodd;"/><path d="M107.2202,74.375c.21,0,.3999-.117.4897-.303,5.75-11.589,20.1499-21.773,41.4302-21.773,38.8701,0,45.8701,31.763,45.8701,45.054v82.2939c0,.833-.6704,1.508-1.5103,1.508h-34.4897c-.8403,0-1.5103-.675-1.5103-1.508v-68.102c0-19.824-6.7798-26.131-18.5298-26.131-15.8203,0-22.8203,13.291-22.8203,32.89v61.343c0,.833-.6797,1.508-1.5098,1.508h-34.27c-.8301,0-1.5103-.675-1.5103-1.508v-68.102c0-19.824-6.7798-26.131-18.5298-26.131-15.8101,0-22.8198,13.516-22.8198,32.89v61.343c0,.833-.6704,1.508-1.5103,1.508H1.5103c-.8301,0-1.5103-.675-1.5103-1.508V62.713c0-.708.5-1.321,1.1899-1.472l27.02-5.887c.8701-.189,1.71.409,1.8203,1.29l1.7798,14.613c.0298.237.23.415.4702.415.1597,0,.3096-.084.3999-.22,8.5801-13.36,20.73-19.153,36.2397-19.153,19.0503,0,31.8701,9.747,37.8101,21.773.1001.185.2803.303.4902.303Z" style="fill:#fff;"/><path d="M208.5303,118.754c0-40.774,26.6597-66.455,61.46-66.455,35.71,0,59.21,27.033,59.21,67.131,0,2.775-.1201,7.445-.1899,9.804-.02.814-.6899,1.459-1.5,1.459h-80.7803c-.8599,0-1.5601.73-1.4497,1.589,1.4399,11.296,11.3999,18.911,26.52,18.911,15.9897,0,26.7397-6.09,34.3999-11.858.2598-.198.5801-.307.9097-.307h.2603c.6299,0,1.1899.384,1.4102.966l11.21,29.087c.23.616.0498,1.314-.48,1.707-8.0703,5.959-24.8203,13.069-47.0303,13.069-37.0601,0-63.9497-23.653-63.9497-65.103ZM293.1602,103.661c.8999,0,1.6001-.785,1.4297-1.667-1.8799-9.303-10.48-17.932-23.9199-17.932-13.21,0-21.5996,8.413-23.8398,17.872-.21.9.5,1.727,1.4199,1.727h44.9102Z" style="fill:#fff; fill-rule:evenodd;"/><path d="M414.98,52.299c-17.0601,0-31,8.006-38.2798,19.156-.0801.136-.23.217-.3901.217-.2397,0-.4399-.178-.4702-.416l-1.7896-14.612c-.1001-.881-.9502-1.479-1.8101-1.29l-27.0303,5.887c-.6899.151-1.1797.764-1.1797,1.472v116.934c0,.833.6699,1.508,1.5,1.508h34.5c.8296,0,1.5098-.675,1.5098-1.508v-61.343c0-22.077,13.3301-32.89,26.4302-32.89,11.2998,0,19.8896,7.434,19.8896,22.302v71.931c0,.833.6704,1.508,1.5103,1.508h34.4897c.8301,0,1.5103-.675,1.5103-1.508v-82.97c0-24.104-16.27-44.378-50.3901-44.378Z" style="fill:#fff;"/><path d="M627.8701,57.587c0-1.169,1.2798-1.904,2.3301-1.395,4.6597,2.253,10.1997,3.493,16.5601,3.493,6.1099,0,11.46-1.145,16-3.233,1.0498-.482,2.2998.254,2.2998,1.409v121.721c0,.832-.6699,1.507-1.5098,1.507h-34.2603c-.8398,0-1.5098-.675-1.5098-1.508l.0898-121.994Z" style="fill:#fff;"/><path d="M805,54.902c1.1699,0,1.8901,1.275,1.29,2.28l-35.4399,59.319c-.29.49-.29,1.105.02,1.586l38.9102,60.646c.6396,1.0031-.0801,2.321-1.27,2.321h-40.4399c-.54,0-1.0303-.282-1.3003-.739l-19.96-33.697c-.5801-.985-2.0098-.985-2.5898,0l-19.96,33.697c-.27.457-.77.739-1.3003.739h-40.4399c-1.1997,0-1.9199-1.318-1.27-2.321l38.8999-60.646c.3101-.481.3203-1.096.0303-1.586l-35.4399-59.319c-.6001-1.005.1196-2.28,1.29-2.28h40.04c.5596,0,1.0796.31,1.3398.806l16.77,31.927c.5601,1.075,2.1001,1.075,2.6699,0l16.77-31.927c.2598-.496.77-.806,1.3301-.806h40.0498Z" style="fill:#fff;"/><path d="M379.5898,239.295l-12.4097-35.16h-5.9302l-12.3999,35.16h4.27l3.6602-10.748h14.8696l3.6704,10.748h4.2695ZM364.1201,207.351h.1499l6.27,17.779h-12.7002l6.2803-17.779Z" style="fill:#fff;"/><path d="M407.6201,203.533c-6.6299,0-10.8501,4.068-10.8501,9.443,0,5.273,3.77,7.886,10.6001,9.795,7.0298,1.958,10.2002,3.264,10.2002,7.232,0,3.768-2.6201,6.127-8.0903,6.127-5.4297,0-9.3901-3.666-11.75-7.232h-.21l-2.21,3.716c2.21,3.417,7.4399,7.284,14.27,7.284,7.3799,0,11.9502-3.617,11.9502-9.996,0-6.178-4.7202-8.337-11.3501-10.196-7.6802-2.159-9.3901-3.566-9.3901-6.831,0-2.963,2.21-5.675,6.9302-5.675,4.2197,0,7.6899,2.863,9.7397,6.328h.21l2.21-3.516c-2.1099-3.314-6.5298-6.479-12.2598-6.479Z" style="fill:#fff;"/><path d="M429.4902,201.323c-1.9502,0-3.0103,1.205-3.0103,3.014,0,1.758,1.0601,2.963,3.0103,2.963,1.96,0,3.02-1.205,3.02-2.963,0-1.809-1.0601-3.014-3.02-3.014ZM431.3999,239.295v-28.127h-3.7598v28.127h3.7598Z" style="fill:#fff;"/><path d="M450.0703,210.565c-6.8804,0-12.6104,6.028-12.6104,14.565,0,8.59,4.3701,14.768,12.96,14.768,4.6699,0,8.79-2.31,10.9004-5.324l-1.9102-3.516h-.1499c-1.46,2.26-4.3701,5.274-8.8901,5.274-5.4302,0-8.8901-3.968-9.1899-9.845h20.9897s.0503-.904.0503-1.658c0-8.839-5.27-14.264-12.1499-14.264ZM450.0703,213.98c4.5195,0,8.0298,3.115,8.3896,9.192h-17.1299c.5-5.224,3.9702-9.192,8.7402-9.192Z" style="fill:#fff;"/><path d="M495.7803,210.565c-4.2202,0-7.0903,2.159-8.4404,4.772h-.1499c-.96-2.613-3.52-4.772-7.29-4.772-3.8101,0-6.2798,1.708-7.7798,4.319h-.1001l-.46-3.716h-3.2598v28.127h3.77v-16.123c0-5.827,3.0098-9.192,6.8799-9.192,3.21,0,5.2197,1.809,5.2197,6.68v18.635h3.77v-16.123c0-6.028,3.1104-9.192,6.9302-9.192,3.27,0,5.27,1.809,5.27,6.68v18.635h3.77v-20.041c0-5.475-3.0601-8.689-8.1299-8.689Z" style="fill:#fff;"/><path d="M522.1201,210.565c-6.8799,0-12.6001,6.028-12.6001,14.565,0,8.59,4.3701,14.768,12.96,14.768,4.6699,0,8.79-2.31,10.8901-5.324l-1.8999-3.516h-.1499c-1.4604,2.26-4.3701,5.274-8.9004,5.274-5.4199,0-8.8799-3.968-9.1899-9.845h21s.0503-.904.0503-1.658c0-8.839-5.27-14.264-12.1602-14.264ZM522.1201,213.98c4.52,0,8.04,3.115,8.3901,9.192h-17.1304c.5103-5.224,3.9702-9.192,8.7402-9.192Z" style="fill:#fff;"/><path d="M553.0601,210.565c-4.0601,0-7.0801,1.859-8.8398,4.47h-.1499l-.4502-3.867h-3.27v28.127h3.77v-15.068c0-6.228,3.52-10.247,8.2397-10.247,4.3203,0,6.5303,2.763,6.5303,7.686v17.629h3.77v-18.383c0-5.776-3.2202-10.347-9.6001-10.347Z" style="fill:#fff;"/><path d="M578.4302,210.565c-5.98,0-9.2002,3.817-9.2002,7.685,0,4.168,2.5601,6.428,8.8901,8.037,7.29,1.857,8.2397,3.415,8.2397,5.825,0,2.21-1.8599,4.27-6.23,4.27-4.3198,0-7.5298-2.611-9.5898-6.028h-.1499l-2.1602,3.266c1.8101,3.113,6.3799,6.278,12.0503,6.278,5.6797,0,9.7998-3.165,9.7998-7.786,0-4.571-2.71-6.93-9.3901-8.688-6.8896-1.809-7.7397-3.216-7.7397-5.224,0-1.909,1.5601-4.22,5.4297-4.22,4.0103,0,6.8301,2.462,8.5303,5.274h.21l2.0498-3.1639c-1.5-2.311-5.0698-5.525-10.7397-5.525Z" style="fill:#fff;"/><path d="M609.5303,204.135v35.16h12.1997c9.3501,0,11.9102-4.872,11.9102-9.393s-2.21-7.282-5.5303-8.538v-.101c3.6704-1.557,5.5303-4.069,5.5303-8.087,0-5.675-3.7202-9.041-10.6499-9.041h-13.46ZM613.5503,207.802h9.1396c4.8701,0,6.8804,2.311,6.8804,5.676,0,3.918-3.0601,6.178-7.3301,6.178h-8.6899v-11.854ZM613.5503,223.222h8.7896c5.0703,0,7.2803,2.311,7.2803,6.178,0,3.817-2.3101,6.228-7.7402,6.228h-8.3296v-12.406Z" style="fill:#fff;"/><path d="M660.77,239.295v-28.127h-3.77v16.424c0,5.274-3.46,8.79-7.98,8.79-3.8701,0-5.7798-2.311-5.7798-6.831v-18.3831h-3.7603v18.936c0,5.776,3.0103,9.794,9.1401,9.794,3.9102,0,6.7798-2.06,8.1802-4.52h.1499l.5601,3.917h3.2598Z" style="fill:#fff;"/><path d="M676.48,210.565c-5.98,0-9.1899,3.817-9.1899,7.685,0,4.168,2.5601,6.428,8.8901,8.037,7.2798,1.857,8.23,3.415,8.23,5.825,0,2.21-1.8501,4.27-6.23,4.27-4.3101,0-7.5303-2.611-9.5903-6.028h-.1499l-2.1597,3.266c1.8096,3.113,6.3799,6.278,12.0596,6.278,5.6704,0,9.79-3.165,9.79-7.786,0-4.571-2.71-6.93-9.3896-8.688-6.8804-1.809-7.7402-3.216-7.7402-5.224,0-1.909,1.5601-4.22,5.4302-4.22,4.02,0,6.8301,2.462,8.54,5.274h.1997l2.0601-3.1639c-1.5098-2.311-5.0801-5.525-10.75-5.525Z" style="fill:#fff;"/><path d="M696.0898,201.323c-1.96,0-3.0195,1.205-3.0195,3.014,0,1.758,1.0596,2.963,3.0195,2.963,1.9502,0,3.0103-1.205,3.0103-2.963,0-1.809-1.0601-3.014-3.0103-3.014ZM698,239.295v-28.127h-3.77v28.127h3.77Z" style="fill:#fff;"/><path d="M718.27,210.565c-4.0698,0-7.0898,1.859-8.8398,4.47h-.1499l-.46-3.867h-3.2603v28.127h3.77v-15.068c0-6.228,3.5098-10.247,8.23-10.247,4.3198,0,6.5298,2.763,6.5298,7.686v17.629h3.77v-18.383c0-5.776-3.2197-10.347-9.5898-10.347Z" style="fill:#fff;"/><path d="M746.0898,210.565c-6.8799,0-12.6099,6.028-12.6099,14.565,0,8.59,4.3701,14.768,12.96,14.768,4.6699,0,8.79-2.31,10.8999-5.324l-1.9097-3.516h-.1499c-1.46,2.26-4.3701,5.274-8.8901,5.274-5.4199,0-8.8901-3.968-9.1899-9.845h20.9897s.0503-.904.0503-1.658c0-8.839-5.27-14.264-12.1504-14.264ZM746.0898,213.98c4.52,0,8.04,3.115,8.3901,9.192h-17.1299c.5-5.224,3.9702-9.192,8.7397-9.192Z" style="fill:#fff;"/><path d="M772.96,210.565c-5.98,0-9.1899,3.817-9.1899,7.685,0,4.168,2.5601,6.428,8.8901,8.037,7.2798,1.857,8.2397,3.415,8.2397,5.825,0,2.21-1.8599,4.27-6.23,4.27-4.3198,0-7.54-2.611-9.5996-6.028h-.1504l-2.1597,3.266c1.8101,3.113,6.3799,6.278,12.0601,6.278,5.6699,0,9.7896-3.165,9.7896-7.786,0-4.571-2.71-6.93-9.3896-8.688-6.8804-1.809-7.7402-3.216-7.7402-5.224,0-1.909,1.5601-4.22,5.4302-4.22,4.02,0,6.8301,2.462,8.54,5.274h.1997l2.0601-3.1639c-1.5098-2.311-5.0698-5.525-10.75-5.525Z" style="fill:#fff;"/><path d="M799.3501,210.565c-5.98,0-9.1899,3.817-9.1899,7.685,0,4.168,2.5601,6.428,8.8901,8.037,7.2798,1.857,8.2397,3.415,8.2397,5.825,0,2.21-1.8599,4.27-6.23,4.27-4.3198,0-7.54-2.611-9.6001-6.028h-.1499l-2.1602,3.266c1.8101,3.113,6.3804,6.278,12.0601,6.278,5.6699,0,9.79-3.165,9.79-7.786,0-4.571-2.71-6.93-9.3901-8.688-6.8799-1.809-7.73-3.216-7.73-5.224,0-1.909,1.5503-4.22,5.4204-4.22,4.02,0,6.8296,2.462,8.5396,5.274h.2002l2.0601-3.1639c-1.5103-2.311-5.0698-5.525-10.75-5.525Z" style="fill:#fff;"/></g></g></svg>