<svg width="251" height="22" viewBox="0 0 251 22" fill="none" xmlns="http://www.w3.org/2000/svg">
<path fill-rule="evenodd" clip-rule="evenodd" d="M0.478654 20.8106V16.8446C2.73517 17.5284 4.78655 17.9386 6.49603 17.9386C8.8893 17.9386 10.1201 17.3232 10.1201 16.024C10.1201 15.5454 9.91499 15.1351 9.5731 14.7932C9.2312 14.4513 8.27389 13.9726 6.76955 13.3572C4.10275 12.2632 2.39327 11.3059 1.57272 10.5537C0.547034 9.52799 0 8.22879 0 6.72445C0 4.74145 0.752171 3.16872 2.25652 2.14303C3.76086 1.11735 5.74386 0.570312 8.13713 0.570312C9.50472 0.570312 11.4193 0.84383 13.9494 1.32248V5.15172C12.1715 4.33117 10.462 3.98928 8.82092 3.98928C6.56441 3.98928 5.40196 4.60469 5.40196 5.83552C5.40196 6.31417 5.6071 6.65607 6.08575 6.99796C6.49603 7.2031 7.52172 7.75013 9.2312 8.5023C11.6929 9.59637 13.334 10.5537 14.1545 11.3742C15.1118 12.3315 15.5905 13.5624 15.5905 15.1351C15.5905 17.3232 14.6332 19.0327 12.7185 20.1268C11.1458 21.0841 9.16282 21.4944 6.70117 21.4944C4.71817 21.4944 2.59841 21.2892 0.478654 20.8106Z" fill="#009999"/>
<path fill-rule="evenodd" clip-rule="evenodd" d="M18.875 0.847656H24.4821V21.0879H18.875V0.847656Z" fill="#009999"/>
<path fill-rule="evenodd" clip-rule="evenodd" d="M29.6758 21.0879V0.847656H44.1722V4.54014H35.1461V9.12155H43.0097V12.4037H35.1461V17.2587H44.4457V21.0879H29.6758Z" fill="#009999"/>
<path fill-rule="evenodd" clip-rule="evenodd" d="M48.1406 21.0879V0.847656H55.4572L60.5173 13.7713L65.7825 0.847656H72.7572V21.0879H67.3552V6.79665L61.4062 21.2931H57.9189L52.1066 6.79665V21.0879H48.1406Z" fill="#009999"/>
<path fill-rule="evenodd" clip-rule="evenodd" d="M77.9531 21.0879V0.847656H92.4495V4.54014H83.3551V9.12155H91.2871V12.4037H83.3551V17.2587H92.6547V21.0879H77.9531Z" fill="#009999"/>
<path fill-rule="evenodd" clip-rule="evenodd" d="M96.4199 21.0879V0.847656H102.984L109.891 14.3867V0.847656H113.925V21.0879H107.497L100.386 7.34369V21.0879H96.4199Z" fill="#009999"/>
<path fill-rule="evenodd" clip-rule="evenodd" d="M117.887 20.8125V16.8465C120.143 17.5303 122.126 17.9406 123.904 17.9406C126.298 17.9406 127.528 17.3252 127.528 16.026C127.528 15.5473 127.323 15.1371 126.981 14.7952C126.639 14.4533 125.682 13.9746 124.178 13.3592C121.511 12.2651 119.801 11.3078 118.981 10.5557C117.955 9.52997 117.408 8.23076 117.408 6.65804C117.408 4.67504 118.16 3.1707 119.665 2.07663C121.169 1.05094 123.152 0.503906 125.545 0.503906C126.913 0.503906 128.691 0.709044 130.811 1.1877L131.494 1.25608V5.08532C129.58 4.33314 127.87 3.99125 126.229 3.99125C123.973 3.99125 122.81 4.60666 122.81 5.83749C122.81 6.31614 123.015 6.65804 123.494 6.99994C123.836 7.20507 124.93 7.75211 126.639 8.50428C129.101 9.59835 130.742 10.5557 131.563 11.3762C132.52 12.3335 132.999 13.5643 132.999 15.1371C132.999 17.3252 132.041 19.0347 130.127 20.1288C128.554 21.0861 126.571 21.4963 124.109 21.4963C122.126 21.4963 120.007 21.2912 117.887 20.8125Z" fill="#009999"/>
<path d="M217.187 4.3795C217.173 4.40833 217.143 4.42657 217.109 4.42657C217.076 4.42657 217.046 4.40822 217.032 4.37939C216.084 2.5129 214.037 1 210.998 1C208.523 1 206.584 1.89921 205.215 3.97279C205.201 3.9939 205.177 4.00699 205.151 4.00699C205.113 4.00699 205.081 3.97932 205.076 3.94252L204.794 1.69401C204.776 1.54676 204.631 1.44684 204.482 1.47841L200.204 2.38485C200.085 2.41005 200 2.51251 200 2.63097V20.7481C200 20.8872 200.116 21 200.259 21H205.727C205.87 21 205.986 20.8872 205.986 20.7481V11.2448C205.986 8.23776 207.103 6.13986 209.627 6.13986C211.502 6.13986 212.584 7.11888 212.584 10.1958V20.7481C212.584 20.8872 212.7 21 212.843 21H218.275C218.418 21 218.534 20.8872 218.534 20.7481V11.2448C218.534 8.2028 219.652 6.13986 222.176 6.13986C224.051 6.13986 225.132 7.11888 225.132 10.1958V20.7481C225.132 20.8872 225.248 21 225.391 21H237.123C237.215 21 237.3 20.9531 237.346 20.8766L240.507 15.6906C240.607 15.526 240.852 15.526 240.953 15.6906L244.114 20.8766C244.16 20.9531 244.245 21 244.336 21H250.741C250.945 21 251.069 20.7796 250.959 20.612L244.78 11.2534C244.727 11.1729 244.725 11.0701 244.776 10.9879L250.404 1.83461C250.507 1.66671 250.383 1.4534 250.182 1.4534H243.841C243.745 1.4534 243.656 1.50524 243.612 1.58803L240.959 6.4949C240.862 6.67441 240.598 6.67441 240.501 6.4949L237.848 1.58803C237.803 1.50524 237.715 1.4534 237.619 1.4534H231.278C231.077 1.4534 230.953 1.66671 231.056 1.83461L236.684 10.9879C236.735 11.0701 236.733 11.1729 236.68 11.2534L231.591 18.9617C231.452 19.1716 231.118 19.076 231.118 18.8265V7.99301C231.118 5.93007 230 1 223.798 1C220.402 1 218.105 2.58072 217.187 4.3795Z" fill="white"/>
</svg>
