<svg width="133" height="21" viewBox="0 0 133 21" fill="none" xmlns="http://www.w3.org/2000/svg">
<path fill-rule="evenodd" clip-rule="evenodd" d="M0.478654 20.3067V16.3407C2.73517 17.0245 4.78655 17.4347 6.49603 17.4347C8.8893 17.4347 10.1201 16.8193 10.1201 15.5201C10.1201 15.0415 9.91499 14.6312 9.5731 14.2893C9.2312 13.9474 8.27389 13.4687 6.76955 12.8533C4.10275 11.7593 2.39327 10.8019 1.57272 10.0498C0.547034 9.02409 0 7.72488 0 6.22054C0 4.23754 0.752171 2.66482 2.25652 1.63913C3.76086 0.61344 5.74386 0.0664062 8.13713 0.0664062C9.50472 0.0664062 11.4193 0.339924 13.9494 0.818578V4.64782C12.1715 3.82727 10.462 3.48537 8.82092 3.48537C6.56441 3.48537 5.40196 4.10078 5.40196 5.33161C5.40196 5.81026 5.6071 6.15216 6.08575 6.49406C6.49603 6.69919 7.52172 7.24623 9.2312 7.9984C11.6929 9.09247 13.334 10.0498 14.1545 10.8703C15.1118 11.8276 15.5905 13.0585 15.5905 14.6312C15.5905 16.8193 14.6332 18.5288 12.7185 19.6229C11.1458 20.5802 9.16282 20.9905 6.70117 20.9905C4.71817 20.9905 2.59841 20.7853 0.478654 20.3067Z" fill="white"/>
<path fill-rule="evenodd" clip-rule="evenodd" d="M18.875 0.34375H24.4821V20.584H18.875V0.34375Z" fill="white"/>
<path fill-rule="evenodd" clip-rule="evenodd" d="M29.6758 20.584V0.34375H44.1722V4.03623H35.1461V8.61764H43.0097V11.8998H35.1461V16.7548H44.4457V20.584H29.6758Z" fill="white"/>
<path fill-rule="evenodd" clip-rule="evenodd" d="M48.1406 20.584V0.34375H55.4572L60.5173 13.2674L65.7825 0.34375H72.7572V20.584H67.3552V6.29274L61.4062 20.7891H57.9189L52.1066 6.29274V20.584H48.1406Z" fill="white"/>
<path fill-rule="evenodd" clip-rule="evenodd" d="M77.9531 20.584V0.34375H92.4495V4.03623H83.3551V8.61764H91.2871V11.8998H83.3551V16.7548H92.6547V20.584H77.9531Z" fill="white"/>
<path fill-rule="evenodd" clip-rule="evenodd" d="M96.4199 20.584V0.34375H102.984L109.891 13.8828V0.34375H113.925V20.584H107.497L100.386 6.83978V20.584H96.4199Z" fill="white"/>
<path fill-rule="evenodd" clip-rule="evenodd" d="M117.887 20.3086V16.3426C120.143 17.0264 122.126 17.4367 123.904 17.4367C126.298 17.4367 127.528 16.8213 127.528 15.5221C127.528 15.0434 127.323 14.6332 126.981 14.2913C126.639 13.9494 125.682 13.4707 124.178 12.8553C121.511 11.7612 119.801 10.8039 118.981 10.0517C117.955 9.02606 117.408 7.72686 117.408 6.15413C117.408 4.17114 118.16 2.66679 119.665 1.57272C121.169 0.547035 123.152 0 125.545 0C126.913 0 128.691 0.205138 130.811 0.683793L131.494 0.752172V4.58141C129.58 3.82924 127.87 3.48734 126.229 3.48734C123.973 3.48734 122.81 4.10276 122.81 5.33358C122.81 5.81224 123.015 6.15413 123.494 6.49603C123.836 6.70117 124.93 7.2482 126.639 8.00037C129.101 9.09444 130.742 10.0517 131.563 10.8723C132.52 11.8296 132.999 13.0604 132.999 14.6332C132.999 16.8213 132.041 18.5308 130.127 19.6248C128.554 20.5822 126.571 20.9924 124.109 20.9924C122.126 20.9924 120.007 20.7873 117.887 20.3086Z" fill="white"/>
</svg>
